<svg width="25" height="24" viewBox="0 0 25 24" fill="none" xmlns="http://www.w3.org/2000/svg">
<g id="transportation/car">
<path id="Vector" d="M20.5 10H20.159L17.68 4.214C17.526 3.85378 17.2697 3.54671 16.9428 3.33089C16.6158 3.11507 16.2327 3.00002 15.841 3H5.254C4.81966 3.00134 4.39746 3.14348 4.05074 3.4051C3.70402 3.66671 3.45148 4.0337 3.331 4.451L1.538 10.726C1.53432 10.7629 1.53265 10.7999 1.533 10.837C1.51693 10.8902 1.50588 10.9448 1.5 11V16C1.5 16.5304 1.71071 17.0391 2.08579 17.4142C2.46086 17.7893 2.96957 18 3.5 18H3.642C3.86027 18.8576 4.35806 19.618 5.05672 20.1611C5.75537 20.7042 6.61507 20.9991 7.5 20.9991C8.38493 20.9991 9.24463 20.7042 9.94328 20.1611C10.6419 19.618 11.1397 18.8576 11.358 18H13.642C13.8603 18.8576 14.3581 19.618 15.0567 20.1611C15.7554 20.7042 16.6151 20.9991 17.5 20.9991C18.3849 20.9991 19.2446 20.7042 19.9433 20.1611C20.6419 19.618 21.1397 18.8576 21.358 18H21.5C22.0304 18 22.5391 17.7893 22.9142 17.4142C23.2893 17.0391 23.5 16.5304 23.5 16V13C23.5 12.2044 23.1839 11.4413 22.6213 10.8787C22.0587 10.3161 21.2956 10 20.5 10ZM12.5 5H15.841L17.983 10H12.5V5ZM5.254 5H10.5V10H3.825L5.254 5ZM7.5 19C7.10444 19 6.71776 18.8827 6.38886 18.6629C6.05996 18.4432 5.80362 18.1308 5.65224 17.7654C5.50087 17.3999 5.46126 16.9978 5.53843 16.6098C5.6156 16.2219 5.80608 15.8655 6.08579 15.5858C6.36549 15.3061 6.72186 15.1156 7.10982 15.0384C7.49778 14.9613 7.89991 15.0009 8.26537 15.1522C8.63082 15.3036 8.94318 15.56 9.16294 15.8889C9.3827 16.2178 9.5 16.6044 9.5 17C9.5 17.5304 9.28929 18.0391 8.91421 18.4142C8.53914 18.7893 8.03043 19 7.5 19ZM17.5 19C17.1044 19 16.7178 18.8827 16.3889 18.6629C16.06 18.4432 15.8036 18.1308 15.6522 17.7654C15.5009 17.3999 15.4613 16.9978 15.5384 16.6098C15.6156 16.2219 15.8061 15.8655 16.0858 15.5858C16.3655 15.3061 16.7219 15.1156 17.1098 15.0384C17.4978 14.9613 17.8999 15.0009 18.2654 15.1522C18.6308 15.3036 18.9432 15.56 19.1629 15.8889C19.3827 16.2178 19.5 16.6044 19.5 17C19.5 17.5304 19.2893 18.0391 18.9142 18.4142C18.5391 18.7893 18.0304 19 17.5 19ZM21.5 16H21.358C21.1397 15.1424 20.6419 14.382 19.9433 13.8389C19.2446 13.2958 18.3849 13.0009 17.5 13.0009C16.6151 13.0009 15.7554 13.2958 15.0567 13.8389C14.3581 14.382 13.8603 15.1424 13.642 16H11.358C11.1397 15.1424 10.6419 14.382 9.94328 13.8389C9.24463 13.2958 8.38493 13.0009 7.5 13.0009C6.61507 13.0009 5.75537 13.2958 5.05672 13.8389C4.35806 14.382 3.86027 15.1424 3.642 16H3.5V12H20.5C20.7652 12 21.0196 12.1054 21.2071 12.2929C21.3946 12.4804 21.5 12.7348 21.5 13V16Z" fill="black"/>
</g>
</svg>
