<svg width="25" height="24" viewBox="0 0 25 24" fill="none" xmlns="http://www.w3.org/2000/svg">
<g id="interface/email">
<path id="Vector" d="M22.5 3H2.5C2.23478 3 1.98043 3.10536 1.79289 3.29289C1.60536 3.48043 1.5 3.73478 1.5 4V20C1.5 20.2652 1.60536 20.5196 1.79289 20.7071C1.98043 20.8946 2.23478 21 2.5 21H22.5C22.7652 21 23.0196 20.8946 23.2071 20.7071C23.3946 20.5196 23.5 20.2652 23.5 20V4C23.5 3.73478 23.3946 3.48043 23.2071 3.29289C23.0196 3.10536 22.7652 3 22.5 3ZM21.5 19H3.5V9.477L12.128 12.929C12.367 13.0237 12.633 13.0237 12.872 12.929L21.5 9.477V19ZM21.5 7.323L12.5 10.923L3.5 7.323V5H21.5V7.323Z" fill="black"/>
</g>
</svg>
