<svg width="25" height="24" viewBox="0 0 25 24" fill="none" xmlns="http://www.w3.org/2000/svg">
<g id="technology/tablet">
<path id="Vector" d="M6.5 23H18.5C19.2956 23 20.0587 22.6839 20.6213 22.1213C21.1839 21.5587 21.5 20.7956 21.5 20V4C21.5 3.20435 21.1839 2.44129 20.6213 1.87868C20.0587 1.31607 19.2956 1 18.5 1H6.5C5.70435 1 4.94129 1.31607 4.37868 1.87868C3.81607 2.44129 3.5 3.20435 3.5 4V20C3.5 20.7956 3.81607 21.5587 4.37868 22.1213C4.94129 22.6839 5.70435 23 6.5 23ZM5.5 4C5.5 3.73478 5.60536 3.48043 5.79289 3.29289C5.98043 3.10536 6.23478 3 6.5 3H18.5C18.7652 3 19.0196 3.10536 19.2071 3.29289C19.3946 3.48043 19.5 3.73478 19.5 4V20C19.5 20.2652 19.3946 20.5196 19.2071 20.7071C19.0196 20.8946 18.7652 21 18.5 21H6.5C6.23478 21 5.98043 20.8946 5.79289 20.7071C5.60536 20.5196 5.5 20.2652 5.5 20V4ZM11.5 18C11.5 17.8022 11.5586 17.6089 11.6685 17.4444C11.7784 17.28 11.9346 17.1518 12.1173 17.0761C12.3 17.0004 12.5011 16.9806 12.6951 17.0192C12.8891 17.0578 13.0673 17.153 13.2071 17.2929C13.347 17.4327 13.4422 17.6109 13.4808 17.8049C13.5194 17.9989 13.4996 18.2 13.4239 18.3827C13.3482 18.5654 13.22 18.7216 13.0556 18.8315C12.8911 18.9414 12.6978 19 12.5 19C12.2348 19 11.9804 18.8946 11.7929 18.7071C11.6054 18.5196 11.5 18.2652 11.5 18Z" fill="black"/>
</g>
</svg>
