<svg width="16" height="16" viewBox="0 0 16 16" fill="none" xmlns="http://www.w3.org/2000/svg">
<path d="M0.862183 8.4716C0.737202 8.34659 0.666992 8.17705 0.666992 8.00027C0.666992 7.8235 0.737202 7.65396 0.862183 7.52894L4.86218 3.52894C4.98792 3.4075 5.15632 3.3403 5.33112 3.34182C5.50591 3.34334 5.67312 3.41345 5.79673 3.53706C5.92033 3.66066 5.99045 3.82787 5.99197 4.00267C5.99348 4.17747 5.92629 4.34587 5.80485 4.4716L2.94285 7.3336H14.6668C14.8437 7.3336 15.0132 7.40384 15.1383 7.52887C15.2633 7.65389 15.3335 7.82346 15.3335 8.00027C15.3335 8.17708 15.2633 8.34665 15.1383 8.47168C15.0132 8.5967 14.8437 8.66694 14.6668 8.66694H2.94285L5.80485 11.5289C5.92629 11.6547 5.99348 11.8231 5.99197 11.9979C5.99045 12.1727 5.92033 12.3399 5.79673 12.4635C5.67312 12.5871 5.50591 12.6572 5.33112 12.6587C5.15632 12.6602 4.98792 12.593 4.86218 12.4716L0.862183 8.4716Z" fill="#1E1E1E"/>
</svg>
