<svg width="48" height="48" viewBox="0 0 48 48" fill="none" xmlns="http://www.w3.org/2000/svg">
<g id="interface/chat-square-plain-2">
<path id="Vector" d="M6 6C5.46957 6 4.96086 6.21071 4.58579 6.58579C4.21071 6.96086 4 7.46957 4 8V32C4 32.5304 4.21071 33.0391 4.58579 33.4142C4.96086 33.7893 5.46957 34 6 34H25.298L34.75 41.562C35.0442 41.7975 35.3989 41.9452 35.7734 41.9879C36.1478 42.0306 36.5267 41.9666 36.8664 41.8034C37.206 41.6401 37.4927 41.3842 37.6932 41.0652C37.8938 40.7461 38.0001 40.3769 38 40V34H42C42.5304 34 43.0391 33.7893 43.4142 33.4142C43.7893 33.0391 44 32.5304 44 32V8C44 7.46957 43.7893 6.96086 43.4142 6.58579C43.0391 6.21071 42.5304 6 42 6H6ZM40 30H36C35.4696 30 34.9609 30.2107 34.5858 30.5858C34.2107 30.9609 34 31.4696 34 32V35.838L27.25 30.438C26.8952 30.1543 26.4543 29.9998 26 30H8V10H40V30Z" fill="#1E1E1E"/>
</g>
</svg>
