<svg width="94" height="81" viewBox="0 0 94 81" fill="none" xmlns="http://www.w3.org/2000/svg">
<g id="Clinique svg" clip-path="url(#clip0_343_3323)">
<g id="Group">
<path id="Vector" fill-rule="evenodd" clip-rule="evenodd" d="M83.8819 60.3148C83.8819 60.3148 90.3526 60.4287 93.6931 60.043V62.226C93.6931 62.226 93.3775 60.9986 90.8786 61.2704L86.7315 61.735V67.1356H93.3073V68.3366H86.7052V74.4911L89.8002 74.7804C90.3964 74.8243 92.7374 75.1662 93.851 73.4654L93.6668 74.6665C93.6668 74.6665 93.6405 75.7185 92.264 75.7185H83.575C83.575 75.7185 84.3554 75.1224 84.3554 73.5092V64.6545C84.3466 64.6457 84.4168 62.3224 83.8819 60.3148ZM68.8363 60.1657H72.0629V71.9575C72.0629 71.9575 72.0366 75.1399 75.7015 75.1399C79.3665 75.1399 80.0504 72.0364 80.0504 70.1251V62.7432C80.0504 62.7432 80.1644 60.9635 79.0684 60.1745H81.6987C81.6987 60.1745 81.4532 61.1564 81.4532 62.4452V71.4227C81.4532 71.4227 81.9705 76.2533 75.4999 76.2533C69.038 76.2533 69.3887 72.5711 69.3887 71.3438V62.8221C69.3887 62.7958 69.4325 61.4545 68.8363 60.1657ZM59.5862 59.7975C65.4081 59.7975 67.4773 63.4534 67.4773 67.9158C67.4773 71.7032 64.9346 74.8944 61.5064 75.7887C62.3043 75.85 63.3126 76.0604 63.9088 76.5426C64.9346 77.3667 65.4519 78.3311 66.8986 78.3311V79.05C66.8986 79.05 65.4519 79.1815 63.9088 78.4977C62.6111 77.9015 61.5678 76.7355 59.0952 76.0166C53.5452 75.815 51.6952 72.2468 51.6952 67.9071C51.6952 63.4534 53.7644 59.7975 59.5862 59.7975ZM30.6524 60.0693H33.8439L42.0243 71.0983L42.7169 62.1208C42.7169 62.1208 43.0062 60.8496 41.7349 60.1131H43.848V75.5432H42.1733L33.1512 63.655L32.555 72.9744C32.555 72.9744 32.2481 74.6489 33.3529 75.5432H31.2749V62.2172C31.2749 62.2172 31.2573 61.1652 30.6524 60.0693ZM46.7501 60.157H50.0731C50.0731 60.157 49.6084 62.5416 49.6084 65.5575V73.0621C49.6084 73.0621 49.5821 75.1837 49.7663 75.6659H46.9956C46.9956 75.6659 47.1973 74.2018 47.1973 72.615V66.2588C47.1973 66.2501 47.4077 62.6293 46.7501 60.157ZM25.3654 60.157H28.6884C28.6884 60.157 28.2237 62.5416 28.2237 65.5575V73.0621C28.2237 73.0621 28.1974 75.1837 28.399 75.6659H25.5933C25.5933 75.6659 25.8125 74.2018 25.8125 72.615V66.2588C25.8125 66.2501 26.0142 62.6293 25.3654 60.157ZM14.7563 60.2709H17.8513C17.8513 60.2709 17.5883 65.3295 17.5883 66.9164V74.3596C17.5883 74.3596 19.0788 74.7629 20.9727 74.7629C22.8665 74.7629 23.6206 74.158 24.2518 73.1322C24.2518 73.1322 24.1817 74.7103 23.4277 75.6046H14.844C14.844 75.6046 15.1596 73.7109 15.1596 71.4577V64.5493C15.1596 64.5493 15.2473 62.1208 14.7563 60.2709ZM8.26807 59.78C8.26807 59.78 11.0124 59.8238 12.5906 60.5164V62.34C12.5906 62.34 11.407 60.9372 8.38205 60.9372C5.35715 60.9372 2.49007 63.1027 2.49007 67.9158C2.49007 72.729 5.19056 75.0522 8.39959 75.0522C11.6262 75.0522 12.9063 72.7728 12.9063 72.7728C12.9063 72.7728 13.2657 74.9733 11.3456 75.6747C11.3456 75.6747 9.47803 76.0254 8.46973 76.0254C7.46143 76.0254 0 76.5163 0 68.0035C0 59.5082 6.89152 59.78 8.26807 59.78ZM0.227964 80.3388H94V80.9174H0.227964V80.3388ZM0.227964 55.8085H94V56.4046H0.227964V55.8085ZM35.3519 46.1822V8.39608C35.3519 5.74842 35.3519 0.795012 47.4077 0.812546C59.3057 0.830081 59.3057 5.3802 59.3057 8.51882V25.79H48.4423V5.03828C48.4423 5.03828 48.5738 3.83719 47.434 3.83719C46.3205 3.83719 46.2942 4.6876 46.2942 5.21362V47.5236C46.2942 47.5236 46.1627 49.0841 47.1885 49.0841C47.1885 49.0841 48.4423 49.1893 48.4423 47.6288V27.7275H59.2969V45.2967C59.2969 49.3033 57.2715 52.3893 47.1534 52.3893C39.3413 52.4068 35.3519 50.6359 35.3519 46.1822Z" fill="black"/>
<path id="Vector_2" fill-rule="evenodd" clip-rule="evenodd" d="M59.6481 60.8936C63.5235 60.8936 65.014 64.0848 65.014 67.9861C65.014 71.8875 63.3218 75.0699 59.6481 75.0699C55.9656 75.0699 54.2734 71.8875 54.2734 67.9861C54.2734 64.0848 55.7552 60.8936 59.6481 60.8936Z" fill="white"/>
</g>
</g>
<defs>
<clipPath id="clip0_343_3323">
<rect width="94" height="80.1136" fill="white" transform="translate(0 0.804688)"/>
</clipPath>
</defs>
</svg>
