<svg width="48" height="48" viewBox="0 0 48 48" fill="none" xmlns="http://www.w3.org/2000/svg">
<g id="ecommerce/credit-card">
<path id="Vector" d="M40 6H8C6.4087 6 4.88258 6.63214 3.75736 7.75736C2.63214 8.88258 2 10.4087 2 12V36C2 37.5913 2.63214 39.1174 3.75736 40.2426C4.88258 41.3679 6.4087 42 8 42H40C41.5913 42 43.1174 41.3679 44.2426 40.2426C45.3679 39.1174 46 37.5913 46 36V12C46 10.4087 45.3679 8.88258 44.2426 7.75736C43.1174 6.63214 41.5913 6 40 6ZM42 36C42 36.5304 41.7893 37.0391 41.4142 37.4142C41.0391 37.7893 40.5304 38 40 38H8C7.46957 38 6.96086 37.7893 6.58579 37.4142C6.21071 37.0391 6 36.5304 6 36V12C6 11.4696 6.21071 10.9609 6.58579 10.5858C6.96086 10.2107 7.46957 10 8 10H40C40.5304 10 41.0391 10.2107 41.4142 10.5858C41.7893 10.9609 42 11.4696 42 12V36ZM38 32C38 32.5304 37.7893 33.0391 37.4142 33.4142C37.0391 33.7893 36.5304 34 36 34H30C29.4696 34 28.9609 33.7893 28.5858 33.4142C28.2107 33.0391 28 32.5304 28 32C28 31.4696 28.2107 30.9609 28.5858 30.5858C28.9609 30.2107 29.4696 30 30 30H36C36.5304 30 37.0391 30.2107 37.4142 30.5858C37.7893 30.9609 38 31.4696 38 32ZM18 18C18 18.7911 17.7654 19.5645 17.3259 20.2223C16.8864 20.8801 16.2616 21.3928 15.5307 21.6955C14.7998 21.9983 13.9956 22.0775 13.2196 21.9231C12.4437 21.7688 11.731 21.3878 11.1716 20.8284C10.6122 20.269 10.2312 19.5563 10.0769 18.7804C9.92252 18.0044 10.0017 17.2002 10.3045 16.4693C10.6072 15.7384 11.1199 15.1136 11.7777 14.6741C12.4355 14.2346 13.2089 14 14 14C15.0609 14 16.0783 14.4214 16.8284 15.1716C17.5786 15.9217 18 16.9391 18 18Z" fill="#1E1E1E"/>
</g>
</svg>
