<svg width="16" height="16" viewBox="0 0 16 16" fill="none" xmlns="http://www.w3.org/2000/svg">
<g id="design/cube">
<path id="Vector" d="M1.72882 12.6093L7.72882 15.2759H7.73282C7.81666 15.3137 7.90755 15.3332 7.99949 15.3332C8.09143 15.3332 8.18233 15.3137 8.26616 15.2759H8.27149L14.2715 12.6093C14.3891 12.5567 14.489 12.4712 14.559 12.363C14.6291 12.2549 14.6663 12.1288 14.6662 11.9999V3.99992C14.663 3.87166 14.6243 3.74679 14.5544 3.63922C14.4845 3.53164 14.3861 3.44557 14.2702 3.39059L8.27016 0.723922C8.18494 0.686064 8.09274 0.666504 7.99949 0.666504C7.90625 0.666504 7.81404 0.686064 7.72882 0.723922L1.72882 3.39059C1.61295 3.44563 1.5146 3.53172 1.44469 3.63928C1.37479 3.74684 1.33607 3.87168 1.33282 3.99992V11.9999C1.33281 12.1289 1.37021 12.2551 1.4405 12.3633C1.51079 12.4714 1.61095 12.5569 1.72882 12.6093ZM2.66616 5.02592L7.33282 7.09992V13.6406L2.66616 11.5666V5.02592ZM13.3328 11.5666L8.66616 13.6406V7.09992L13.3328 5.02592V11.5666ZM7.99949 2.06259L12.3582 3.99992L7.99949 5.93726L3.64082 3.99992L7.99949 2.06259Z" fill="#50AA75"/>
</g>
</svg>
