<svg width="48" height="48" viewBox="0 0 48 48" fill="none" xmlns="http://www.w3.org/2000/svg">
<g id="business and finance/discount">
<path id="Vector" d="M24 2C19.6488 2 15.3953 3.29028 11.7775 5.70767C8.15958 8.12506 5.33979 11.561 3.67466 15.581C2.00953 19.6009 1.57386 24.0244 2.42273 28.292C3.27161 32.5596 5.36691 36.4796 8.44366 39.5564C11.5204 42.6331 15.4404 44.7284 19.708 45.5773C23.9756 46.4261 28.3991 45.9905 32.419 44.3253C36.439 42.6602 39.875 39.8404 42.2923 36.2225C44.7097 32.6047 46 28.3512 46 24C45.9931 18.1673 43.6731 12.5756 39.5488 8.45125C35.4244 4.32694 29.8327 2.00688 24 2ZM24 42C20.4399 42 16.9598 40.9443 13.9997 38.9665C11.0397 36.9886 8.73256 34.1774 7.37018 30.8883C6.0078 27.5992 5.65134 23.98 6.34587 20.4884C7.04041 16.9967 8.75474 13.7894 11.2721 11.2721C13.7894 8.75473 16.9967 7.0404 20.4884 6.34586C23.98 5.65133 27.5992 6.00779 30.8883 7.37017C34.1774 8.73255 36.9886 11.0397 38.9665 13.9997C40.9443 16.9598 42 20.4399 42 24C41.9947 28.7723 40.0966 33.3476 36.7221 36.7221C33.3476 40.0966 28.7723 41.9947 24 42ZM33.414 17.414L17.414 33.414C17.2295 33.605 17.0088 33.7574 16.7648 33.8622C16.5208 33.967 16.2584 34.0222 15.9928 34.0245C15.7273 34.0268 15.4639 33.9762 15.2181 33.8756C14.9723 33.7751 14.749 33.6266 14.5612 33.4388C14.3734 33.251 14.2249 33.0277 14.1244 32.7819C14.0238 32.5361 13.9732 32.2728 13.9755 32.0072C13.9778 31.7416 14.033 31.4792 14.1378 31.2352C14.2426 30.9912 14.395 30.7705 14.586 30.586L30.586 14.586C30.7705 14.395 30.9912 14.2426 31.2352 14.1378C31.4792 14.033 31.7416 13.9778 32.0072 13.9755C32.2728 13.9732 32.5361 14.0238 32.7819 14.1244C33.0277 14.2249 33.251 14.3734 33.4388 14.5612C33.6266 14.749 33.7751 14.9723 33.8757 15.2181C33.9762 15.4639 34.0268 15.7272 34.0245 15.9928C34.0222 16.2584 33.967 16.5208 33.8622 16.7648C33.7574 17.0088 33.605 17.2295 33.414 17.414ZM13 17C13 16.2089 13.2346 15.4355 13.6741 14.7777C14.1137 14.1199 14.7384 13.6072 15.4693 13.3045C16.2002 13.0017 17.0044 12.9225 17.7804 13.0769C18.5563 13.2312 19.269 13.6122 19.8284 14.1716C20.3878 14.731 20.7688 15.4437 20.9232 16.2196C21.0775 16.9956 20.9983 17.7998 20.6955 18.5307C20.3928 19.2616 19.8801 19.8864 19.2223 20.3259C18.5645 20.7654 17.7911 21 17 21C15.9391 21 14.9217 20.5786 14.1716 19.8284C13.4214 19.0783 13 18.0609 13 17ZM35 31C35 31.7911 34.7654 32.5645 34.3259 33.2223C33.8864 33.8801 33.2616 34.3928 32.5307 34.6955C31.7998 34.9983 30.9956 35.0775 30.2196 34.9231C29.4437 34.7688 28.731 34.3878 28.1716 33.8284C27.6122 33.269 27.2312 32.5563 27.0769 31.7804C26.9225 31.0044 27.0017 30.2002 27.3045 29.4693C27.6072 28.7384 28.1199 28.1136 28.7777 27.6741C29.4355 27.2346 30.2089 27 31 27C32.0609 27 33.0783 27.4214 33.8284 28.1716C34.5786 28.9217 35 29.9391 35 31Z" fill="#1E1E1E"/>
</g>
</svg>
