<svg width="41" height="40" viewBox="0 0 41 40" fill="none" xmlns="http://www.w3.org/2000/svg">
<g id="emoji/emoji-cheer-up">
<path id="Vector" d="M20.4993 26.6668C21.5448 26.6612 22.5747 26.4126 23.5076 25.9405C24.4404 25.4684 25.2507 24.7859 25.8743 23.9468C26.0127 23.7771 26.1831 23.6364 26.3758 23.5326C26.5685 23.4289 26.7797 23.3641 26.9975 23.3419C27.2152 23.3198 27.4352 23.3408 27.6449 23.4037C27.8545 23.4665 28.0497 23.5701 28.2193 23.7084C28.389 23.8468 28.5297 24.0171 28.6335 24.2098C28.7372 24.4025 28.802 24.6138 28.8242 24.8316C28.8463 25.0493 28.8253 25.2693 28.7625 25.4789C28.6996 25.6886 28.596 25.8838 28.4577 26.0534C27.5247 27.2796 26.321 28.2737 24.9405 28.9579C23.5601 29.6422 22.0401 29.9983 20.4993 29.9983C18.9586 29.9983 17.4386 29.6422 16.0582 28.9579C14.6777 28.2737 13.474 27.2796 12.541 26.0534C12.2617 25.7109 12.1298 25.2713 12.1745 24.8316C12.2192 24.3918 12.4368 23.9878 12.7793 23.7084C13.1219 23.4291 13.5614 23.2972 14.0012 23.3419C14.441 23.3866 14.845 23.6042 15.1243 23.9468C15.748 24.7859 16.5583 25.4684 17.4911 25.9405C18.424 26.4126 19.4539 26.6612 20.4993 26.6668ZM2.16602 20.0001C2.16602 16.3741 3.24125 12.8295 5.25574 9.81464C7.27023 6.79974 10.1335 4.44991 13.4835 3.0623C16.8335 1.67469 20.5197 1.31163 24.076 2.01903C27.6323 2.72642 30.899 4.4725 33.463 7.03647C36.0269 9.60043 37.773 12.8671 38.4804 16.4234C39.1878 19.9798 38.8247 23.666 37.4371 27.016C36.0495 30.3659 33.6997 33.2292 30.6848 35.2437C27.6699 37.2582 24.1253 38.3334 20.4993 38.3334C15.6388 38.3277 10.979 36.3943 7.54206 32.9574C4.10513 29.5205 2.17175 24.8606 2.16602 20.0001ZM5.49935 20.0001C5.49935 22.9668 6.37908 25.8669 8.02731 28.3336C9.67553 30.8004 12.0182 32.723 14.7591 33.8583C17.5 34.9936 20.516 35.2907 23.4257 34.7119C26.3354 34.1331 29.0082 32.7045 31.1059 30.6067C33.2037 28.5089 34.6324 25.8362 35.2111 22.9264C35.7899 20.0167 35.4929 17.0007 34.3575 14.2598C33.2222 11.5189 31.2996 9.17627 28.8329 7.52805C26.3662 5.87983 23.4661 5.00009 20.4993 5.00009C16.5225 5.0045 12.7097 6.58627 9.89762 9.39836C7.08553 12.2105 5.50376 16.0232 5.49935 20.0001ZM23.8327 20.0001C24.2747 20.0001 24.6986 19.8245 25.0112 19.5119C25.3238 19.1994 25.4993 18.7755 25.4993 18.3334C25.4993 17.8914 25.6749 17.4675 25.9875 17.1549C26.3001 16.8424 26.724 16.6668 27.166 16.6668C27.608 16.6668 28.032 16.8424 28.3445 17.1549C28.6571 17.4675 28.8327 17.8914 28.8327 18.3334C28.8327 18.7755 29.0083 19.1994 29.3208 19.5119C29.6334 19.8245 30.0573 20.0001 30.4993 20.0001C30.9414 20.0001 31.3653 19.8245 31.6779 19.5119C31.9904 19.1994 32.166 18.7755 32.166 18.3334C32.166 17.0073 31.6392 15.7356 30.7015 14.7979C29.7639 13.8602 28.4921 13.3334 27.166 13.3334C25.8399 13.3334 24.5682 13.8602 23.6305 14.7979C22.6928 15.7356 22.166 17.0073 22.166 18.3334C22.166 18.7755 22.3416 19.1994 22.6542 19.5119C22.9667 19.8245 23.3907 20.0001 23.8327 20.0001ZM12.166 18.3334C12.166 17.8914 12.3416 17.4675 12.6542 17.1549C12.9667 16.8424 13.3907 16.6668 13.8327 16.6668C14.2747 16.6668 14.6986 16.8424 15.0112 17.1549C15.3238 17.4675 15.4993 17.8914 15.4993 18.3334C15.4993 18.7755 15.6749 19.1994 15.9875 19.5119C16.3001 19.8245 16.724 20.0001 17.166 20.0001C17.608 20.0001 18.032 19.8245 18.3445 19.5119C18.6571 19.1994 18.8327 18.7755 18.8327 18.3334C18.8327 17.0073 18.3059 15.7356 17.3682 14.7979C16.4305 13.8602 15.1588 13.3334 13.8327 13.3334C12.5066 13.3334 11.2348 13.8602 10.2971 14.7979C9.35947 15.7356 8.83268 17.0073 8.83268 18.3334C8.83268 18.7755 9.00828 19.1994 9.32084 19.5119C9.6334 19.8245 10.0573 20.0001 10.4993 20.0001C10.9414 20.0001 11.3653 19.8245 11.6779 19.5119C11.9904 19.1994 12.166 18.7755 12.166 18.3334Z" fill="#1E1E1E"/>
</g>
</svg>
