<svg width="40" height="40" viewBox="0 0 40 40" fill="none" xmlns="http://www.w3.org/2000/svg">
<g id="Facebook">
<path id="Oval 10" opacity="0.1" fill-rule="evenodd" clip-rule="evenodd" d="M19.9746 38.35C30.1228 38.35 38.3496 30.1232 38.3496 19.975C38.3496 9.82674 30.1228 1.59998 19.9746 1.59998C9.82638 1.59998 1.59961 9.82674 1.59961 19.975C1.59961 30.1232 9.82638 38.35 19.9746 38.35Z" stroke="#0A142F" stroke-width="1.575"/>
<path id="Shape" d="M21.6477 15.2718H23.3365C23.4918 15.2718 23.6179 15.153 23.6179 15.0066V13.4152C23.6179 13.2688 23.4918 13.15 23.3365 13.15H21.6477C19.9409 13.15 18.5515 14.4586 18.5515 16.0675V17.9241H16.5813C16.4259 17.9241 16.2998 18.0429 16.2998 18.1893V19.7807C16.2998 19.9271 16.4259 20.0459 16.5813 20.0459H18.5515V25.6157C18.5515 25.7621 18.6776 25.8809 18.833 25.8809H20.5218C20.6772 25.8809 20.8033 25.7621 20.8033 25.6157V20.0459H22.7735C22.8946 20.0459 23.0021 19.9727 23.0409 19.8645L23.6039 18.2731C23.6326 18.1925 23.6179 18.1034 23.565 18.0339C23.5115 17.9649 23.4271 17.9241 23.3365 17.9241H20.8033V16.0675C20.8033 15.6288 21.1821 15.2718 21.6477 15.2718Z" fill="#0A142F"/>
</g>
</svg>
