<svg width="24" height="21" viewBox="0 0 24 21" fill="none" xmlns="http://www.w3.org/2000/svg">
<g id="logos:mastercard" clip-path="url(#clip0_855_7862)">
<g id="Vector">
<mask id="path-1-inside-1_855_7862" fill="white">
<path d="M4.36274 20.4007V19.077C4.36274 18.5695 4.07455 18.2386 3.58059 18.2386C3.33365 18.2386 3.06609 18.3268 2.88084 18.6137C2.73684 18.371 2.53105 18.2386 2.22234 18.2386C2.01646 18.2386 1.81077 18.3047 1.64605 18.5475V18.2827H1.21387V20.4007H1.64605V19.2314C1.64605 18.8564 1.8313 18.6798 2.11949 18.6798C2.40749 18.6798 2.55168 18.8784 2.55168 19.2314V20.4007H2.98387V19.2314C2.98387 18.8564 3.18955 18.6798 3.45712 18.6798C3.7453 18.6798 3.8893 18.8784 3.8893 19.2314V20.4007H4.36274ZM10.7631 18.2827H10.0635V17.6429H9.6313V18.2827H9.24027V18.7018H9.63121V19.6727C9.63121 20.1581 9.81646 20.4448 10.3104 20.4448C10.4957 20.4448 10.7014 20.3787 10.8456 20.2905L10.722 19.8933C10.5985 19.9815 10.4545 20.0036 10.3516 20.0036C10.1458 20.0036 10.0635 19.8713 10.0635 19.6506V18.7018H10.7631V18.2827ZM14.4265 18.2385C14.1796 18.2385 14.015 18.371 13.912 18.5475V18.2827H13.4798V20.4007H13.912V19.2094C13.912 18.8564 14.056 18.6578 14.3236 18.6578C14.4059 18.6578 14.5088 18.6799 14.5911 18.7019L14.7146 18.2607C14.6323 18.2386 14.5088 18.2386 14.4265 18.2386V18.2385ZM8.8904 18.4592C8.68452 18.3047 8.39643 18.2386 8.08771 18.2386C7.59384 18.2386 7.26459 18.5033 7.26459 18.9225C7.26459 19.2756 7.51152 19.4741 7.94371 19.5403L8.14949 19.5624C8.3759 19.6064 8.49937 19.6727 8.49937 19.783C8.49937 19.9374 8.33474 20.0478 8.04655 20.0478C7.75846 20.0478 7.53205 19.9374 7.38796 19.8271L7.18218 20.1801C7.40859 20.3566 7.7173 20.4448 8.02593 20.4448C8.60221 20.4448 8.93155 20.1581 8.93155 19.7609C8.93155 19.3858 8.66399 19.1873 8.25234 19.1211L8.04655 19.099C7.8613 19.0769 7.7173 19.0329 7.7173 18.9005C7.7173 18.746 7.8613 18.6578 8.08771 18.6578C8.33474 18.6578 8.58168 18.7681 8.70515 18.8343L8.8904 18.4592ZM20.3743 18.2386C20.1273 18.2386 19.9626 18.371 19.8597 18.5475V18.2827H19.4275V20.4007H19.8597V19.2094C19.8597 18.8564 20.0038 18.6578 20.2713 18.6578C20.3537 18.6578 20.4566 18.6799 20.5389 18.7019L20.6624 18.2607C20.5801 18.2386 20.4566 18.2386 20.3743 18.2386ZM14.8587 19.3417C14.8587 19.9815 15.2703 20.4448 15.9083 20.4448C16.1964 20.4448 16.4022 20.3787 16.608 20.2022L16.4022 19.8271C16.2376 19.9595 16.073 20.0256 15.8877 20.0256C15.5378 20.0256 15.2909 19.7609 15.2909 19.3417C15.2909 18.9446 15.5378 18.6798 15.8877 18.6578C16.073 18.6578 16.2376 18.7239 16.4022 18.8564L16.608 18.4813C16.4022 18.3047 16.1964 18.2386 15.9083 18.2386C15.2703 18.2386 14.8587 18.7019 14.8587 19.3417ZM18.8513 19.3417V18.2827H18.4191V18.5475C18.2751 18.349 18.0693 18.2386 17.8017 18.2386C17.2461 18.2386 16.8139 18.7019 16.8139 19.3417C16.8139 19.9815 17.2461 20.4448 17.8017 20.4448C18.0898 20.4448 18.2957 20.3346 18.4191 20.136V20.4007H18.8513V19.3417ZM17.2666 19.3417C17.2666 18.9666 17.493 18.6578 17.8634 18.6578C18.2133 18.6578 18.4603 18.9446 18.4603 19.3417C18.4603 19.7168 18.2133 20.0256 17.8634 20.0256C17.493 20.0035 17.2666 19.7168 17.2666 19.3417ZM12.101 18.2386C11.5247 18.2386 11.113 18.6798 11.113 19.3417C11.113 20.0036 11.5246 20.4448 12.1215 20.4448C12.4096 20.4448 12.6978 20.3566 12.9242 20.1581L12.7183 19.8271C12.5537 19.9595 12.3479 20.0478 12.1421 20.0478C11.8746 20.0478 11.607 19.9154 11.5452 19.5402H13.0065V19.3638C13.0271 18.6798 12.6567 18.2386 12.101 18.2386ZM12.101 18.6357C12.3684 18.6357 12.5538 18.8123 12.5948 19.1432H11.5658C11.607 18.8564 11.7922 18.6357 12.101 18.6357ZM22.8233 19.3417V17.4443H22.3911V18.5475C22.2471 18.349 22.0413 18.2386 21.7737 18.2386C21.2181 18.2386 20.7859 18.7019 20.7859 19.3417C20.7859 19.9815 21.2181 20.4448 21.7737 20.4448C22.0619 20.4448 22.2677 20.3346 22.3911 20.136V20.4007H22.8233V19.3417ZM21.2387 19.3417C21.2387 18.9666 21.465 18.6578 21.8355 18.6578C22.1854 18.6578 22.4323 18.9446 22.4323 19.3417C22.4323 19.7168 22.1854 20.0256 21.8355 20.0256C21.465 20.0035 21.2387 19.7168 21.2387 19.3417ZM6.79115 19.3417V18.2827H6.35896V18.5475C6.21487 18.349 6.00909 18.2386 5.74152 18.2386C5.18587 18.2386 4.75368 18.7019 4.75368 19.3417C4.75368 19.9815 5.18587 20.4448 5.74152 20.4448C6.02971 20.4448 6.23549 20.3346 6.35896 20.136V20.4007H6.79115V19.3417ZM5.18587 19.3417C5.18587 18.9666 5.41227 18.6578 5.78268 18.6578C6.13255 18.6578 6.37959 18.9446 6.37959 19.3417C6.37959 19.7168 6.13255 20.0256 5.78268 20.0256C5.41227 20.0035 5.18587 19.7168 5.18587 19.3417Z"/>
</mask>
<path d="M4.36274 20.4007V19.077C4.36274 18.5695 4.07455 18.2386 3.58059 18.2386C3.33365 18.2386 3.06609 18.3268 2.88084 18.6137C2.73684 18.371 2.53105 18.2386 2.22234 18.2386C2.01646 18.2386 1.81077 18.3047 1.64605 18.5475V18.2827H1.21387V20.4007H1.64605V19.2314C1.64605 18.8564 1.8313 18.6798 2.11949 18.6798C2.40749 18.6798 2.55168 18.8784 2.55168 19.2314V20.4007H2.98387V19.2314C2.98387 18.8564 3.18955 18.6798 3.45712 18.6798C3.7453 18.6798 3.8893 18.8784 3.8893 19.2314V20.4007H4.36274ZM10.7631 18.2827H10.0635V17.6429H9.6313V18.2827H9.24027V18.7018H9.63121V19.6727C9.63121 20.1581 9.81646 20.4448 10.3104 20.4448C10.4957 20.4448 10.7014 20.3787 10.8456 20.2905L10.722 19.8933C10.5985 19.9815 10.4545 20.0036 10.3516 20.0036C10.1458 20.0036 10.0635 19.8713 10.0635 19.6506V18.7018H10.7631V18.2827ZM14.4265 18.2385C14.1796 18.2385 14.015 18.371 13.912 18.5475V18.2827H13.4798V20.4007H13.912V19.2094C13.912 18.8564 14.056 18.6578 14.3236 18.6578C14.4059 18.6578 14.5088 18.6799 14.5911 18.7019L14.7146 18.2607C14.6323 18.2386 14.5088 18.2386 14.4265 18.2386V18.2385ZM8.8904 18.4592C8.68452 18.3047 8.39643 18.2386 8.08771 18.2386C7.59384 18.2386 7.26459 18.5033 7.26459 18.9225C7.26459 19.2756 7.51152 19.4741 7.94371 19.5403L8.14949 19.5624C8.3759 19.6064 8.49937 19.6727 8.49937 19.783C8.49937 19.9374 8.33474 20.0478 8.04655 20.0478C7.75846 20.0478 7.53205 19.9374 7.38796 19.8271L7.18218 20.1801C7.40859 20.3566 7.7173 20.4448 8.02593 20.4448C8.60221 20.4448 8.93155 20.1581 8.93155 19.7609C8.93155 19.3858 8.66399 19.1873 8.25234 19.1211L8.04655 19.099C7.8613 19.0769 7.7173 19.0329 7.7173 18.9005C7.7173 18.746 7.8613 18.6578 8.08771 18.6578C8.33474 18.6578 8.58168 18.7681 8.70515 18.8343L8.8904 18.4592ZM20.3743 18.2386C20.1273 18.2386 19.9626 18.371 19.8597 18.5475V18.2827H19.4275V20.4007H19.8597V19.2094C19.8597 18.8564 20.0038 18.6578 20.2713 18.6578C20.3537 18.6578 20.4566 18.6799 20.5389 18.7019L20.6624 18.2607C20.5801 18.2386 20.4566 18.2386 20.3743 18.2386ZM14.8587 19.3417C14.8587 19.9815 15.2703 20.4448 15.9083 20.4448C16.1964 20.4448 16.4022 20.3787 16.608 20.2022L16.4022 19.8271C16.2376 19.9595 16.073 20.0256 15.8877 20.0256C15.5378 20.0256 15.2909 19.7609 15.2909 19.3417C15.2909 18.9446 15.5378 18.6798 15.8877 18.6578C16.073 18.6578 16.2376 18.7239 16.4022 18.8564L16.608 18.4813C16.4022 18.3047 16.1964 18.2386 15.9083 18.2386C15.2703 18.2386 14.8587 18.7019 14.8587 19.3417ZM18.8513 19.3417V18.2827H18.4191V18.5475C18.2751 18.349 18.0693 18.2386 17.8017 18.2386C17.2461 18.2386 16.8139 18.7019 16.8139 19.3417C16.8139 19.9815 17.2461 20.4448 17.8017 20.4448C18.0898 20.4448 18.2957 20.3346 18.4191 20.136V20.4007H18.8513V19.3417ZM17.2666 19.3417C17.2666 18.9666 17.493 18.6578 17.8634 18.6578C18.2133 18.6578 18.4603 18.9446 18.4603 19.3417C18.4603 19.7168 18.2133 20.0256 17.8634 20.0256C17.493 20.0035 17.2666 19.7168 17.2666 19.3417ZM12.101 18.2386C11.5247 18.2386 11.113 18.6798 11.113 19.3417C11.113 20.0036 11.5246 20.4448 12.1215 20.4448C12.4096 20.4448 12.6978 20.3566 12.9242 20.1581L12.7183 19.8271C12.5537 19.9595 12.3479 20.0478 12.1421 20.0478C11.8746 20.0478 11.607 19.9154 11.5452 19.5402H13.0065V19.3638C13.0271 18.6798 12.6567 18.2386 12.101 18.2386ZM12.101 18.6357C12.3684 18.6357 12.5538 18.8123 12.5948 19.1432H11.5658C11.607 18.8564 11.7922 18.6357 12.101 18.6357ZM22.8233 19.3417V17.4443H22.3911V18.5475C22.2471 18.349 22.0413 18.2386 21.7737 18.2386C21.2181 18.2386 20.7859 18.7019 20.7859 19.3417C20.7859 19.9815 21.2181 20.4448 21.7737 20.4448C22.0619 20.4448 22.2677 20.3346 22.3911 20.136V20.4007H22.8233V19.3417ZM21.2387 19.3417C21.2387 18.9666 21.465 18.6578 21.8355 18.6578C22.1854 18.6578 22.4323 18.9446 22.4323 19.3417C22.4323 19.7168 22.1854 20.0256 21.8355 20.0256C21.465 20.0035 21.2387 19.7168 21.2387 19.3417ZM6.79115 19.3417V18.2827H6.35896V18.5475C6.21487 18.349 6.00909 18.2386 5.74152 18.2386C5.18587 18.2386 4.75368 18.7019 4.75368 19.3417C4.75368 19.9815 5.18587 20.4448 5.74152 20.4448C6.02971 20.4448 6.23549 20.3346 6.35896 20.136V20.4007H6.79115V19.3417ZM5.18587 19.3417C5.18587 18.9666 5.41227 18.6578 5.78268 18.6578C6.13255 18.6578 6.37959 18.9446 6.37959 19.3417C6.37959 19.7168 6.13255 20.0256 5.78268 20.0256C5.41227 20.0035 5.18587 19.7168 5.18587 19.3417Z" fill="#1E1E1E" stroke="#1E1E1E" stroke-width="2" mask="url(#path-1-inside-1_855_7862)"/>
</g>
<path id="Vector_2" d="M8.74707 2.19873H15.2299V14.6863H8.74707V2.19873Z" fill="#FF5F00"/>
<path id="Vector_3" d="M9.15834 8.44261C9.15834 5.90543 10.2697 3.65497 11.9778 2.19879C10.7225 1.1398 9.13781 0.5 7.40906 0.5C3.31341 0.5 0 4.05206 0 8.44261C0 12.8331 3.31341 16.3852 7.40897 16.3852C9.13772 16.3852 10.7224 15.7454 11.9778 14.6863C10.2697 13.2523 9.15834 10.9798 9.15834 8.44261Z" fill="#EB001B"/>
<path id="Vector_4" d="M23.9758 8.44261C23.9758 12.8331 20.6624 16.3852 16.5669 16.3852C14.8381 16.3852 13.2535 15.7454 11.998 14.6863C13.7268 13.2303 14.8176 10.9798 14.8176 8.44261C14.8176 5.90543 13.7062 3.65497 11.998 2.19879C13.2534 1.1398 14.8381 0.5 16.5669 0.5C20.6624 0.5 23.9758 4.07417 23.9758 8.44261Z" fill="#F79E1B"/>
</g>
<defs>
<clipPath id="clip0_855_7862">
<rect width="24" height="20" fill="white" transform="translate(0 0.5)"/>
</clipPath>
</defs>
</svg>
