<svg width="16" height="16" viewBox="0 0 16 16" fill="none" xmlns="http://www.w3.org/2000/svg">
<path d="M12.6667 7.4V2.66667C12.6667 2.48986 12.5964 2.32029 12.4714 2.19526C12.3464 2.07024 12.1768 2 12 2H9.33333C9.15652 2 8.98695 2.07024 8.86193 2.19526C8.73691 2.32029 8.66667 2.48986 8.66667 2.66667C8.66667 2.84348 8.73691 3.01305 8.86193 3.13807C8.98695 3.2631 9.15652 3.33333 9.33333 3.33333H11.3333V5.33333H5.33333C5.18843 5.33325 5.04745 5.38039 4.93173 5.4676C4.816 5.55481 4.73185 5.67735 4.692 5.81667L4.25133 7.35867C4.16667 7.35267 4.086 7.33333 4 7.33333C3.17299 7.32217 2.37061 7.61474 1.74489 8.15562C1.11917 8.6965 0.713584 9.44811 0.604978 10.268C0.496372 11.088 0.692292 11.9192 1.15561 12.6044C1.61894 13.2895 2.31748 13.7809 3.11888 13.9854C3.92028 14.19 4.76886 14.0934 5.50385 13.7141C6.23883 13.3348 6.80916 12.6991 7.10676 11.9274C7.40436 11.1557 7.40857 10.3017 7.11858 9.52708C6.82859 8.7525 6.26455 8.11119 5.53333 7.72467L5.836 6.66667H11.3333V7.4C10.524 7.56521 9.80478 8.02506 9.3152 8.69039C8.82562 9.35573 8.60052 10.1791 8.68355 11.001C8.76657 11.8229 9.15181 12.5847 9.76457 13.1386C10.3773 13.6926 11.1739 13.9993 12 13.9993C12.8261 13.9993 13.6227 13.6926 14.2354 13.1386C14.8482 12.5847 15.2334 11.8229 15.3165 11.001C15.3995 10.1791 15.1744 9.35573 14.6848 8.69039C14.1952 8.02506 13.476 7.56521 12.6667 7.4ZM6 10.6667C6.0017 11.0572 5.889 11.4397 5.67583 11.767C5.46265 12.0942 5.15832 12.3519 4.8004 12.5082C4.44247 12.6645 4.04661 12.7126 3.66168 12.6465C3.27674 12.5805 2.91958 12.4031 2.63426 12.1364C2.34894 11.8697 2.14795 11.5253 2.05611 11.1457C1.96426 10.7661 1.98557 10.3679 2.11741 10.0002C2.24925 9.6326 2.48585 9.31161 2.798 9.07687C3.11016 8.84214 3.48421 8.70394 3.874 8.67933L3.35867 10.4833C3.33466 10.5676 3.32747 10.6557 3.33753 10.7427C3.34759 10.8297 3.37469 10.9138 3.41728 10.9904C3.45988 11.0669 3.51713 11.1343 3.58577 11.1886C3.65442 11.243 3.7331 11.2834 3.81733 11.3073C3.87665 11.3248 3.93818 11.3335 4 11.3333C4.14479 11.3333 4.28562 11.2861 4.40121 11.1989C4.5168 11.1117 4.60085 10.9892 4.64067 10.85L5.15667 9.042C5.41676 9.22578 5.62906 9.46918 5.77578 9.75184C5.9225 10.0345 5.99939 10.3482 6 10.6667ZM12 12.6667C11.5288 12.6676 11.0725 12.5017 10.7118 12.1983C10.3512 11.895 10.1096 11.4739 10.0297 11.0095C9.94989 10.545 10.037 10.0674 10.2756 9.66102C10.5142 9.25467 10.8889 8.94588 11.3333 8.78933V10.6667C11.3333 10.8435 11.4036 11.013 11.5286 11.1381C11.6536 11.2631 11.8232 11.3333 12 11.3333C12.1768 11.3333 12.3464 11.2631 12.4714 11.1381C12.5964 11.013 12.6667 10.8435 12.6667 10.6667V8.78933C13.1111 8.94588 13.4858 9.25467 13.7244 9.66102C13.963 10.0674 14.0501 10.545 13.9703 11.0095C13.8904 11.4739 13.6488 11.895 13.2882 12.1983C12.9275 12.5017 12.4712 12.6676 12 12.6667ZM4 4.66667C3.82319 4.66667 3.65362 4.59643 3.5286 4.4714C3.40357 4.34638 3.33333 4.17681 3.33333 4C3.33333 3.82319 3.40357 3.65362 3.5286 3.5286C3.65362 3.40357 3.82319 3.33333 4 3.33333H5.33333C5.51015 3.33333 5.67971 3.40357 5.80474 3.5286C5.92976 3.65362 6 3.82319 6 4C6 4.17681 5.92976 4.34638 5.80474 4.4714C5.67971 4.59643 5.51015 4.66667 5.33333 4.66667H4Z" fill="#F0B826"/>
</svg>
