<svg width="230" height="52" viewBox="0 0 230 52" fill="none" xmlns="http://www.w3.org/2000/svg">
<g id="Neutrogena svg">
<g id="Group">
<path id="Vector" fill-rule="evenodd" clip-rule="evenodd" d="M41.5239 4.28321H41.8968V3.83986V3.39771H29.622V4.28321C31.1473 4.28321 32.4486 4.54103 33.3698 5.08437C34.2898 5.62893 34.8297 6.45781 34.8297 7.60113V28.911L23.6711 16.1176L12.5124 3.32422H3.36328V4.13503L4.70212 4.50369C5.26018 4.7615 6.00344 5.241 6.76607 5.87711C7.5287 6.51323 8.30949 7.30596 8.9426 8.19146L9.01644 8.3011L9.09028 8.41193V35.0311C9.09028 36.8009 8.68112 37.925 7.91002 38.6069C7.1377 39.29 6.00344 39.5285 4.55323 39.5285H4.40433H4.25544V40.414H5.07375C5.48291 40.414 6.30123 40.3767 7.25876 40.3405C8.21628 40.3032 9.31423 40.267 10.2814 40.267L16.4551 40.414V39.9719V39.5285C14.8185 39.5285 13.591 39.1972 12.7727 38.3117C11.9544 37.4274 11.5452 35.9901 11.5452 33.7782V11.4347L34.7547 38.4226C35.3502 39.1237 35.7969 39.5839 36.131 39.8707C36.4663 40.1562 36.6891 40.267 36.838 40.267C36.9869 40.267 37.0982 40.1743 37.1721 40.008C37.2471 39.8418 37.2846 39.6032 37.2846 39.3081L37.2471 37.3913L37.2096 35.4733V7.96978C37.2096 6.60479 37.4335 5.68434 38.0836 5.10365C38.7349 4.52295 39.8134 4.28321 41.5239 4.28321Z" fill="#373535"/>
<path id="Vector_2" fill-rule="evenodd" clip-rule="evenodd" d="M81.8553 37.7288C80.9619 37.324 80.5164 37.0288 80.2925 34.9277C80.0698 32.8254 80.0698 28.9184 80.0698 21.2862V19.0369V16.7888V16.3828V15.9768L71.7377 16.0503H71.5888H71.4411V16.6406C71.4774 16.7515 71.4968 16.8069 71.5428 16.8346C71.5888 16.8623 71.6639 16.8623 71.8128 16.8623C73.4119 16.8623 74.3791 17.1382 74.9468 17.802C75.5133 18.4658 75.6804 19.5164 75.6804 21.0645V35.0012C74.4904 36.1807 73.5608 36.9734 72.6589 37.471C71.7571 37.9685 70.8831 38.1721 69.8045 38.1721C68.2417 38.1721 67.2188 37.5818 66.5869 36.3843C65.955 35.1855 65.7129 33.3796 65.7129 30.946V15.9768L57.3809 15.9033V16.6406C57.4184 16.7515 57.4559 16.8069 57.5298 16.8346C57.6048 16.8623 57.7162 16.8623 57.9014 16.8623C59.2778 16.8623 60.1518 17.0466 60.682 17.7105C61.2122 18.3731 61.3986 19.5164 61.3986 21.4332V32.9362C61.3986 35.5168 61.9566 37.6746 63.0631 39.1853C64.1695 40.6973 65.8243 41.5635 68.019 41.5635C68.8373 41.5635 69.9534 41.213 71.2547 40.4395C72.556 39.6648 74.0438 38.4673 75.6065 36.771L75.7179 36.6602L75.8305 36.5493V41.3431L80.0322 39.8311L84.2352 38.3191V38.0613V37.8035C84.1238 37.7661 84.05 37.7481 83.9846 37.7384C83.9192 37.7288 83.8635 37.7288 83.7897 37.7288H82.8225H81.8553Z" fill="#373535"/>
<path id="Vector_3" fill-rule="evenodd" clip-rule="evenodd" d="M198.046 36.2469V20.7632C198.046 19.1031 197.377 17.6477 196.27 16.6056C195.163 15.5647 193.619 14.937 191.871 14.937C190.83 14.937 190.31 14.937 189.277 15.4816C188.245 16.0249 186.701 17.1128 183.614 19.2874L183.539 19.3621L183.465 19.4356V17.1128V14.79L179.523 16.5225L175.58 18.2561V18.9188C176.585 18.9188 177.514 18.9742 178.194 19.2971C178.873 19.6199 179.3 20.2091 179.3 21.2789V36.2469C179.3 37.3902 179.189 38.201 178.891 38.7359C178.593 39.2708 178.109 39.5286 177.366 39.566L176.734 39.6021L176.101 39.6395V40.3768H186.888V40.0081V39.6395C185.623 39.6395 184.767 39.5106 184.228 39.1142C183.688 38.7178 183.465 38.054 183.465 36.9842L183.539 21.2789C185.809 19.6199 186.943 18.7899 187.724 18.3754C188.506 17.961 188.933 17.961 189.788 17.961C191.128 17.961 192.169 18.4585 192.876 19.3802C193.582 20.3018 193.953 21.6476 193.953 23.3439V36.2469C193.953 37.6853 193.953 38.4046 193.526 38.8287C193.099 39.2527 192.243 39.3816 190.532 39.6395V40.3768H201.467V40.0081V39.6395C201.393 39.6021 201.338 39.584 201.29 39.5744C201.244 39.566 201.207 39.566 201.169 39.566C199.906 39.566 199.125 39.4178 198.66 38.9299C198.195 38.4407 198.046 37.6118 198.046 36.2469Z" fill="#373535"/>
<path id="Vector_4" fill-rule="evenodd" clip-rule="evenodd" d="M132.904 18.6904C130.683 16.229 127.67 14.7363 124.508 14.7363C121.383 14.7363 118.426 16.211 116.251 18.5892C114.075 20.9674 112.68 24.2479 112.68 27.861C112.68 31.6223 114.112 34.9402 116.334 37.3184C118.557 39.6966 121.57 41.1339 124.73 41.1339C127.967 41.1339 130.924 39.7508 133.072 37.475C135.22 35.198 136.559 32.0271 136.559 28.4513C136.559 24.5804 135.126 21.1517 132.904 18.6904ZM130.349 36.7329C129.27 38.4111 127.707 39.4243 125.773 39.4243C123.542 39.4243 121.365 37.8762 119.748 35.3968C118.129 32.9174 117.07 29.5067 117.07 25.7828C117.07 23.3504 117.609 21.1011 118.642 19.4602C119.674 17.8193 121.198 16.7868 123.17 16.7868C125.699 16.7868 127.912 18.3542 129.493 20.7975C131.074 23.2395 132.021 26.5575 132.021 30.0597C132.021 32.715 131.427 35.0558 130.349 36.7329Z" fill="#373535"/>
<path id="Vector_5" fill-rule="evenodd" clip-rule="evenodd" d="M155.84 36.4712C154.575 35.4929 152.753 35.0327 150.521 35.0327L147.657 35.0689L144.793 35.1062C143.38 35.1062 142.449 34.9954 141.873 34.7472C141.297 34.4978 141.074 34.1111 141.074 33.5581C141.074 33.1894 141.203 32.7473 141.455 32.3232C141.706 31.8991 142.077 31.4931 142.562 31.198L142.673 31.1245L142.784 31.051C143.565 31.198 144.216 31.2907 144.765 31.3461C145.313 31.4016 145.76 31.4196 146.131 31.4196C148.661 31.4196 150.819 30.6088 152.344 29.1703C153.868 27.7331 154.761 25.6681 154.761 23.161C154.761 22.7923 154.761 22.6261 154.65 22.1381C154.537 21.649 154.315 20.8382 153.868 19.1793H157.513V16.8938H151.637C150.372 16.1192 149.424 15.6216 148.55 15.3168C147.675 15.0132 146.876 14.9023 145.909 14.9023C143.491 14.9023 141.241 15.8794 139.595 17.4372C137.95 18.9949 136.908 21.1334 136.908 23.4562C136.908 24.5995 137.318 26.0741 138.033 27.3548C138.748 28.6366 139.771 29.7233 140.999 30.092L140.552 30.6823L140.107 31.2714C139.139 32.1943 138.47 32.9316 138.043 33.6135C137.614 34.2954 137.429 34.9219 137.429 35.623C137.429 37.0603 137.968 37.6687 138.506 37.982C139.046 38.2952 139.585 38.3133 139.585 38.5723C139.585 38.794 138.526 39.6963 137.465 40.8481C136.405 42.0011 135.346 43.4022 135.346 44.6178C135.346 45.9828 136.462 47.2357 138.256 48.149C140.051 49.061 142.524 49.6332 145.239 49.6332C148.549 49.6332 151.693 48.6562 154.008 47.0888C156.323 45.5214 157.811 43.3648 157.811 41.0059C157.811 38.941 157.105 37.4471 155.84 36.4712ZM142.435 18.1745C143.048 17.2348 143.96 16.6818 145.15 16.6818C146.601 16.6818 147.884 17.6588 148.804 19.1612C149.726 20.6635 150.282 22.6911 150.282 24.7922C150.282 26.2307 149.93 27.4837 149.251 28.3776C148.572 29.2715 147.567 29.8065 146.266 29.8065C144.965 29.8065 143.773 29.0137 142.909 27.6403C142.045 26.2669 141.505 24.3127 141.505 21.9912C141.505 20.4418 141.821 19.1154 142.435 18.1745ZM153.898 45.0539C152.558 45.9563 150.587 46.5466 148.059 46.5466C145.306 46.5466 143.131 46.1225 141.643 45.4503C140.154 44.7768 139.355 43.8552 139.355 42.8601C139.355 41.2746 139.708 40.2795 140.452 39.6795C141.196 39.0807 142.33 38.8783 143.892 38.8783C149.322 38.8783 152.335 38.859 153.991 39.2012C155.646 39.5421 155.944 40.2421 155.944 41.6794C155.944 42.9335 155.237 44.1504 153.898 45.0539Z" fill="#373535"/>
<path id="Vector_6" fill-rule="evenodd" clip-rule="evenodd" d="M220.013 37.5963C219.641 37.8084 219.492 37.8084 219.194 37.8084C218.785 37.8084 218.469 37.606 218.255 37.1446C218.041 36.6843 217.929 35.9651 217.929 34.9326L218.004 23.3561C218.004 20.4803 217.297 18.3599 215.921 16.96C214.546 15.5588 212.499 14.877 209.821 14.877C207.664 14.877 205.414 15.5215 203.703 16.5998C201.992 17.678 200.82 19.19 200.82 20.9224C200.82 21.8441 201.044 22.4898 201.415 22.9043C201.787 23.3199 202.309 23.5042 202.903 23.5042C203.573 23.5042 204.168 23.2826 204.595 22.9139C205.023 22.5453 205.284 22.0284 205.284 21.4393C205.284 20.702 205.229 20.2225 205.172 19.9092C205.116 19.596 205.06 19.4478 205.06 19.3743C205.06 18.3792 205.525 17.5865 206.27 17.0431C207.013 16.4986 208.036 16.2034 209.152 16.2034C210.342 16.2034 211.384 16.6455 212.127 17.4853C212.872 18.3238 213.317 19.5587 213.317 21.1441L213.281 22.7657L213.243 24.3885L210.528 25.4572L207.813 26.527C205.358 27.486 203.443 28.6655 202.141 30.0208C200.839 31.375 200.15 32.905 200.15 34.564C200.15 36.4072 200.728 37.9927 201.685 39.118C202.643 40.242 203.982 40.9058 205.507 40.9058C206.697 40.9058 207.887 40.648 209.162 40.0938C210.435 39.542 211.793 38.6939 213.317 37.5132L213.392 37.4397L213.466 37.3662C213.653 38.3614 213.987 39.2649 214.527 39.9191C215.067 40.5733 215.81 40.9793 216.815 40.9793C217.595 40.9793 218.414 40.7034 219.278 40.1589C220.142 39.6155 221.054 38.8035 222.021 37.7349L222.096 37.6241L222.17 37.5132V36.8132V36.1133C220.98 36.9602 220.386 37.3843 220.013 37.5963ZM213.178 35.7543L213.103 35.8651L213.029 35.9759C212.434 36.5663 211.728 37.0458 210.993 37.3771C210.258 37.7084 209.496 37.8927 208.789 37.8927C207.673 37.8927 206.651 37.3397 205.906 36.5012C205.162 35.6627 204.698 34.5387 204.698 33.3953C204.698 31.7737 205.255 30.5931 206.604 29.4871C207.952 28.3811 210.091 27.3486 213.252 26.0222L213.178 35.7543Z" fill="#373535"/>
<path id="Vector_7" fill-rule="evenodd" clip-rule="evenodd" d="M59.752 31.3469C59.7048 31.1987 59.6116 31.0879 59.4264 31.0879C59.2024 31.0879 58.6819 32.5818 57.5198 34.0745C56.3577 35.5684 54.554 37.0611 51.7638 37.0611C48.9747 37.0611 46.8914 35.7346 45.4969 33.6697C44.1023 31.6047 43.3954 28.8024 43.3579 25.8532V25.5953V25.3375L50.3136 25.3002L57.2692 25.264C58.1239 25.264 58.5887 25.264 58.8405 25.1809C59.0911 25.0978 59.1286 24.9315 59.1286 24.6002C59.1286 22.0558 58.1614 19.6414 56.5344 17.862C54.9075 16.0825 52.6196 14.9404 49.9794 14.9404C46.8539 14.9404 44.2319 16.3596 42.3907 18.7101C40.5507 21.0606 39.4902 24.3412 39.4902 28.0651C39.4902 31.642 40.6983 35.0154 42.6146 37.4948C44.5297 39.9742 47.1517 41.5596 49.9794 41.5596C51.0943 41.5596 52.1729 41.3199 53.1958 40.8585C54.2187 40.3983 55.1859 39.7152 56.0793 38.8309C56.6737 38.2405 57.6033 36.9502 58.3853 35.5768C59.1661 34.2034 59.798 32.748 59.798 31.8264C59.798 31.6782 59.798 31.4939 59.752 31.3469ZM43.6932 23.0593L43.7307 22.8376C44.0273 20.9944 44.6786 19.5378 45.5998 18.5427C46.5198 17.5475 47.7109 17.0126 49.0861 17.0126C50.1647 17.0126 51.2808 17.5475 52.1269 18.4138C52.9731 19.28 53.5493 20.4787 53.5493 21.8052C53.5493 22.5063 53.3641 22.8569 52.806 23.0497C52.248 23.2437 43.6557 23.2798 43.6557 23.2798L43.6932 23.0593Z" fill="#373535"/>
<path id="Vector_8" fill-rule="evenodd" clip-rule="evenodd" d="M176.445 31.3469C176.398 31.1987 176.306 31.0879 176.12 31.0879C175.896 31.0879 175.375 32.5818 174.205 34.0745C173.033 35.5684 171.21 37.0611 168.383 37.0611C165.817 37.0611 163.734 35.9177 162.293 34.0564C160.851 32.195 160.052 29.6144 160.052 26.7387C160.052 26.2592 160.071 25.9086 160.126 25.6785C160.182 25.4472 160.275 25.3375 160.423 25.3375L167.192 25.3002L173.963 25.264C174.855 25.264 175.32 25.264 175.562 25.1809C175.804 25.0978 175.822 24.9315 175.822 24.6002C175.822 22.0196 174.855 19.6041 173.228 17.8343C171.601 16.0645 169.313 14.9404 166.673 14.9404C163.585 14.9404 160.963 16.3416 159.112 18.6728C157.262 21.0052 156.184 24.2677 156.184 27.9916C156.184 31.5673 157.374 34.96 159.28 37.4574C161.185 39.9549 163.809 41.5596 166.673 41.5596C167.751 41.5596 168.848 41.3006 169.889 40.8308C170.93 40.3609 171.917 39.679 172.773 38.8309C173.405 38.2044 174.334 36.8948 175.107 35.5226C175.878 34.1492 176.491 32.7107 176.491 31.8264C176.491 31.6782 176.491 31.4939 176.445 31.3469ZM160.387 23.0593L160.424 22.8376C160.721 21.0317 161.372 19.5751 162.293 18.5704C163.213 17.5656 164.404 17.0126 165.781 17.0126C166.822 17.0126 167.937 17.5283 168.792 18.386C169.648 19.2426 170.243 20.4414 170.243 21.8052C170.243 22.5063 170.094 22.8569 169.555 23.0497C169.016 23.2437 160.349 23.2798 160.349 23.2798L160.387 23.0593Z" fill="#373535"/>
<path id="Vector_9" fill-rule="evenodd" clip-rule="evenodd" d="M108.737 18.6312C109.519 18.6312 109.872 19.0179 110.3 19.4046C110.727 19.7925 111.229 20.1793 112.308 20.1793C113.051 20.1793 113.609 19.9769 113.982 19.5709C114.354 19.1649 114.54 18.5577 114.54 17.7457C114.54 17.0457 114.279 16.3264 113.805 15.7831C113.331 15.2385 112.643 14.8699 111.787 14.8699C110.969 14.8699 110.56 14.8699 109.779 15.4048C108.997 15.9397 107.845 17.0083 105.539 19.1468L105.39 19.2576L105.241 19.3685V17.0083V14.6494L101.298 16.1975L97.3556 17.7457V18.2625C97.4306 18.336 97.4681 18.3721 97.5045 18.3914C97.542 18.4095 97.5795 18.4095 97.6533 18.4095C98.9183 18.4095 99.8105 18.483 100.387 18.7408C100.963 18.9986 101.224 19.442 101.224 20.1793L101.298 36.6966C101.298 37.6917 101 38.3555 100.415 38.7699C99.8287 39.1844 98.9547 39.3506 97.8022 39.3506C97.6533 39.3506 97.5601 39.3506 97.4681 39.3687C97.3749 39.388 97.2817 39.4241 97.1328 39.4988V40.3096H110.002V39.9771V39.6458C110.002 39.5723 109.964 39.5169 109.881 39.4796C109.797 39.4434 109.668 39.4241 109.481 39.4241C108.143 39.4241 107.082 39.0736 106.357 38.3278C105.632 37.5809 105.241 36.4387 105.241 34.8533V21.4334C106.208 20.2166 106.784 19.5154 107.269 19.1191C107.752 18.7227 108.143 18.6312 108.737 18.6312Z" fill="#373535"/>
<path id="Vector_10" fill-rule="evenodd" clip-rule="evenodd" d="M96.4356 35.8724C96.2128 35.8724 95.972 36.4073 95.4417 36.9422C94.9115 37.4771 94.0932 38.0109 92.7168 38.0109C91.8985 38.0109 91.2097 37.6795 90.7267 37.0073C90.2437 36.3338 89.9641 35.3194 89.9641 33.9556V17.3648H94.8002V15.5216H89.9641V8.44238H89.3322H88.6991C88.2536 9.77003 87.9002 10.729 87.5188 11.5218C87.1375 12.3145 86.7284 12.941 86.1703 13.6048C85.3145 14.6734 84.311 15.3553 83.437 15.8348C82.563 16.3143 81.8185 16.5902 81.4844 16.8492V17.3648C83.046 17.4383 84.0132 17.4757 84.5894 17.513C85.1668 17.5492 85.352 17.5865 85.352 17.66V33.9556C85.352 36.1676 85.8362 38.0109 86.7187 39.3024C87.6024 40.5927 88.8855 41.33 90.4846 41.33C91.2666 41.33 92.8476 40.8505 94.2324 39.9927C95.6173 39.1361 96.8084 37.9012 96.8084 36.3892C96.8084 36.2784 96.7709 36.1495 96.7055 36.0483C96.6402 35.9459 96.5482 35.8724 96.4356 35.8724Z" fill="#373535"/>
<path id="Vector_11" fill-rule="evenodd" clip-rule="evenodd" d="M222.638 15.7627C221.105 15.7627 219.809 16.9313 219.809 18.5156C219.809 20.1143 221.105 21.2829 222.638 21.2829C224.154 21.2829 225.451 20.1143 225.451 18.5156C225.451 16.9313 224.154 15.7627 222.638 15.7627ZM222.638 20.8227C221.363 20.8227 220.369 19.8444 220.369 18.5156C220.369 17.2084 221.363 16.2229 222.638 16.2229C223.897 16.2229 224.892 17.2084 224.892 18.5156C224.892 19.8444 223.897 20.8227 222.638 20.8227Z" fill="#373535"/>
<path id="Vector_12" fill-rule="evenodd" clip-rule="evenodd" d="M223.089 18.7135C223.561 18.6545 223.921 18.4063 223.921 17.8364C223.921 17.2087 223.546 16.9316 222.787 16.9316H221.564V20.1146H222.051V18.7352H222.61L223.457 20.1146H224.002L223.089 18.7135ZM222.051 18.3256V17.3401H222.713C223.052 17.3401 223.413 17.4136 223.413 17.8075C223.413 18.2966 223.045 18.3256 222.632 18.3256H222.051Z" fill="#373535"/>
</g>
</g>
</svg>
