<svg width="24" height="21" viewBox="0 0 24 21" fill="none" xmlns="http://www.w3.org/2000/svg">
<path d="M11.6088 11.1523L11.5457 10.7845L11.1751 10.7403L2.91751 9.75705C2.91747 9.75705 2.91743 9.75704 2.91739 9.75704C2.78998 9.74174 2.68383 9.69321 2.61146 9.63219C2.54089 9.57269 2.51119 9.50998 2.50305 9.4608C2.49619 9.41372 2.50564 9.35927 2.54508 9.30175C2.58666 9.24109 2.66244 9.17777 2.77446 9.13759C2.77452 9.13757 2.77458 9.13755 2.77464 9.13753L20.7741 2.70522C20.7741 2.70522 20.7742 2.70517 20.7742 2.70517C20.8771 2.66844 20.9949 2.65729 21.1097 2.67572C21.2247 2.69417 21.32 2.73952 21.3868 2.79518C21.4528 2.85018 21.4837 2.90839 21.4946 2.9553C21.505 3.00047 21.5005 3.04902 21.4743 3.09989L13.7604 18.0998C13.7604 18.0998 13.7603 18.0998 13.7603 18.0998C13.7305 18.1579 13.6687 18.2241 13.5662 18.2727C13.4635 18.3214 13.3374 18.3434 13.2097 18.3294C13.0818 18.3153 12.9745 18.2677 12.9007 18.2069C12.8281 18.147 12.7973 18.0834 12.7887 18.0337L11.6088 11.1523ZM13.2782 15.0247L13.5312 16.4995L14.2156 15.1689L18.4806 6.8772L17.7159 6.26439L12.7399 10.4111L12.5185 10.5956L12.5672 10.8797L13.2782 15.0247ZM16.9411 5.85511L16.4528 5.00012L6.50283 8.55346L6.61195 9.52083L11.588 10.1125L11.8017 10.1379L11.9671 10.0001L16.9411 5.85511Z" fill="#1E1E1E" stroke="#1E1E1E"/>
</svg>
