<svg width="16" height="16" viewBox="0 0 16 16" fill="none" xmlns="http://www.w3.org/2000/svg">
<g clip-path="url(#clip0_2207_1383)">
<path d="M12.6667 5.99984C13.1941 5.99984 13.7097 5.84344 14.1482 5.55042C14.5868 5.25741 14.9286 4.84093 15.1304 4.35366C15.3322 3.86639 15.385 3.33021 15.2821 2.81293C15.1792 2.29565 14.9253 1.82049 14.5523 1.44755C14.1794 1.07461 13.7042 0.820638 13.1869 0.717744C12.6697 0.61485 12.1335 0.667659 11.6462 0.869493C11.1589 1.07133 10.7425 1.41312 10.4495 1.85165C10.1564 2.29018 10 2.80576 10 3.33317C10.0036 3.58467 10.0433 3.83434 10.118 4.07451L5.37404 6.30384C5.02471 5.87998 4.55302 5.57433 4.02343 5.42866C3.49383 5.28299 2.93218 5.30441 2.41522 5.48999C1.89826 5.67557 1.45121 6.01625 1.13518 6.46548C0.819143 6.91472 0.649536 7.45058 0.649536 7.99984C0.649536 8.5491 0.819143 9.08496 1.13518 9.53419C1.45121 9.98343 1.89826 10.3241 2.41522 10.5097C2.93218 10.6953 3.49383 10.7167 4.02343 10.571C4.55302 10.4253 5.02471 10.1197 5.37404 9.69584L10.118 11.9252C10.0433 12.1653 10.0036 12.415 10 12.6665C9.99852 13.2845 10.2111 13.8839 10.6018 14.3628C10.9924 14.8417 11.5368 15.1705 12.1425 15.2932C12.7482 15.4159 13.3777 15.325 13.9239 15.0359C14.4701 14.7468 14.8993 14.2775 15.1384 13.7076C15.3776 13.1378 15.4119 12.5027 15.2356 11.9104C15.0593 11.3181 14.6832 10.8052 14.1714 10.4589C13.6595 10.1126 13.0435 9.95434 12.4281 10.011C11.8127 10.0677 11.236 10.3359 10.796 10.7698L5.95004 8.49317C6.01671 8.16789 6.01671 7.83246 5.95004 7.50717L10.796 5.22984C11.2938 5.72291 11.9661 5.99962 12.6667 5.99984ZM12.6667 1.99984C12.9304 1.99984 13.1882 2.07804 13.4075 2.22455C13.6267 2.37105 13.7976 2.57929 13.8985 2.82293C13.9995 3.06656 14.0259 3.33465 13.9744 3.59329C13.923 3.85193 13.796 4.08951 13.6095 4.27598C13.423 4.46245 13.1855 4.58944 12.9268 4.64089C12.6682 4.69233 12.4001 4.66593 12.1565 4.56501C11.9128 4.46409 11.7046 4.2932 11.5581 4.07393C11.4116 3.85467 11.3334 3.59688 11.3334 3.33317C11.3334 2.97955 11.4738 2.64041 11.7239 2.39036C11.9739 2.14031 12.3131 1.99984 12.6667 1.99984ZM3.33337 9.33317C3.06967 9.33317 2.81188 9.25497 2.59261 9.10847C2.37335 8.96196 2.20245 8.75372 2.10153 8.51008C2.00062 8.26645 1.97421 7.99836 2.02566 7.73972C2.07711 7.48108 2.20409 7.2435 2.39056 7.05703C2.57703 6.87056 2.81461 6.74357 3.07325 6.69212C3.33189 6.64068 3.59998 6.66708 3.84362 6.768C4.08725 6.86892 4.29549 7.03981 4.442 7.25908C4.58851 7.47834 4.66671 7.73613 4.66671 7.99984C4.66671 8.35346 4.52623 8.6926 4.27618 8.94265C4.02613 9.1927 3.687 9.33317 3.33337 9.33317ZM12.6667 11.3332C12.9304 11.3332 13.1882 11.4114 13.4075 11.5579C13.6267 11.7044 13.7976 11.9126 13.8985 12.1563C13.9995 12.3999 14.0259 12.668 13.9744 12.9266C13.923 13.1853 13.796 13.4228 13.6095 13.6093C13.423 13.7958 13.1855 13.9228 12.9268 13.9742C12.6682 14.0257 12.4001 13.9993 12.1565 13.8983C11.9128 13.7974 11.7046 13.6265 11.5581 13.4073C11.4116 13.188 11.3334 12.9302 11.3334 12.6665C11.3334 12.3129 11.4738 11.9737 11.7239 11.7237C11.9739 11.4736 12.3131 11.3332 12.6667 11.3332Z" fill="white"/>
</g>
<defs>
<clipPath id="clip0_2207_1383">
<rect width="16" height="16" fill="white"/>
</clipPath>
</defs>
</svg>
