<svg width="48" height="48" viewBox="0 0 48 48" fill="none" xmlns="http://www.w3.org/2000/svg">
<g id="ecommerce/shipping-car">
<path id="Vector" d="M39.6 10.8C39.4137 10.5516 39.1721 10.35 38.8944 10.2111C38.6167 10.0723 38.3105 10 38 10H30V8C30 6.93913 29.5786 5.92172 28.8284 5.17157C28.0783 4.42143 27.0609 4 26 4H6C4.93913 4 3.92172 4.42143 3.17157 5.17157C2.42143 5.92172 2 6.93913 2 8V34C2 34.5304 2.21071 35.0391 2.58579 35.4142C2.96086 35.7893 3.46957 36 4 36H6C6 38.1217 6.84285 40.1566 8.34315 41.6569C9.84344 43.1571 11.8783 44 14 44C16.1217 44 18.1566 43.1571 19.6569 41.6569C21.1571 40.1566 22 38.1217 22 36H26C26 38.1217 26.8429 40.1566 28.3431 41.6569C29.8434 43.1571 31.8783 44 34 44C36.1217 44 38.1566 43.1571 39.6569 41.6569C41.1571 40.1566 42 38.1217 42 36C43.0609 36 44.0783 35.5786 44.8284 34.8284C45.5786 34.0783 46 33.0609 46 32V20C46 19.5673 45.8596 19.1462 45.6 18.8L39.6 10.8ZM14 40C13.2089 40 12.4355 39.7654 11.7777 39.3259C11.1199 38.8864 10.6072 38.2616 10.3045 37.5307C10.0017 36.7998 9.92252 35.9956 10.0769 35.2196C10.2312 34.4437 10.6122 33.731 11.1716 33.1716C11.731 32.6122 12.4437 32.2312 13.2196 32.0769C13.9956 31.9225 14.7998 32.0017 15.5307 32.3045C16.2616 32.6072 16.8864 33.1199 17.3259 33.7777C17.7654 34.4355 18 35.2089 18 36C18 37.0609 17.5786 38.0783 16.8284 38.8284C16.0783 39.5786 15.0609 40 14 40ZM26 32H20.888C20.1948 30.7849 19.1925 29.7747 17.9827 29.0721C16.773 28.3695 15.399 27.9994 14 27.9994C12.601 27.9994 11.227 28.3695 10.0173 29.0721C8.80753 29.7747 7.8052 30.7849 7.112 32H6V20H26V32ZM26 12V16H6V8H26V12ZM34 40C33.2089 40 32.4355 39.7654 31.7777 39.3259C31.1199 38.8864 30.6072 38.2616 30.3045 37.5307C30.0017 36.7998 29.9225 35.9956 30.0769 35.2196C30.2312 34.4437 30.6122 33.731 31.1716 33.1716C31.731 32.6122 32.4437 32.2312 33.2196 32.0769C33.9956 31.9225 34.7998 32.0017 35.5307 32.3045C36.2616 32.6072 36.8864 33.1199 37.3259 33.7777C37.7654 34.4355 38 35.2089 38 36C38 37.0609 37.5786 38.0783 36.8284 38.8284C36.0783 39.5786 35.0609 40 34 40ZM42 32H40.888C40.3718 31.0862 39.678 30.2848 38.8476 29.643C38.0171 29.0013 37.0667 28.532 36.0522 28.2629C35.0378 27.9939 33.9797 27.9304 32.9404 28.0762C31.901 28.222 30.9013 28.5742 30 29.112V14H37L42 20.666V32Z" fill="#1E1E1E"/>
</g>
</svg>
