<svg width="21" height="21" viewBox="0 0 21 21" fill="none" xmlns="http://www.w3.org/2000/svg">
<g id="grade" clip-path="url(#clip0_1698_5460)">
<path id="Vector" d="M10.3724 6.10898L11.1807 8.01732L11.5724 8.94232L12.5724 9.02565L14.6307 9.20065L13.0641 10.559L12.3057 11.2173L12.5307 12.2007L12.9974 14.209L11.2307 13.1423L10.3724 12.609L9.51406 13.1257L7.7474 14.1923L8.21406 12.184L8.43906 11.2007L7.68073 10.5423L6.11406 9.18398L8.1724 9.00898L9.1724 8.92565L9.56406 8.00065L10.3724 6.10898ZM10.3724 1.83398L8.03073 7.35898L2.03906 7.86732L6.58906 11.809L5.2224 17.6673L10.3724 14.559L15.5224 17.6673L14.1557 11.809L18.7057 7.86732L12.7141 7.35898L10.3724 1.83398Z" fill="#A4A4B7"/>
</g>
<defs>
<clipPath id="clip0_1698_5460">
<rect width="20" height="20" fill="white" transform="translate(0.371094 0.167969)"/>
</clipPath>
</defs>
</svg>
