<svg width="39" height="40" viewBox="0 0 39 40" fill="none" xmlns="http://www.w3.org/2000/svg">
<g id="Twitter">
<path id="Oval 10 Copy" opacity="0.1" fill-rule="evenodd" clip-rule="evenodd" d="M19.4746 38.35C29.6228 38.35 37.8496 30.1232 37.8496 19.975C37.8496 9.82674 29.6228 1.59998 19.4746 1.59998C9.32638 1.59998 1.09961 9.82674 1.09961 19.975C1.09961 30.1232 9.32638 38.35 19.4746 38.35Z" stroke="#0A142F" stroke-width="1.575"/>
<path id="Shape" d="M25.4806 16.5779C25.3953 16.4815 25.2579 16.4573 25.1451 16.5167C25.075 16.5536 24.9431 16.6021 24.7866 16.65C24.9841 16.3799 25.1429 16.0775 25.213 15.8057C25.2433 15.6886 25.199 15.5651 25.1025 15.4953C25.006 15.426 24.8775 15.426 24.781 15.4953C24.6289 15.6043 23.8951 15.9321 23.4311 16.0383C22.3825 15.0936 21.1622 14.9955 19.8936 15.7573C18.8624 16.3765 18.638 17.6357 18.6817 18.4032C16.3214 18.1695 14.8542 16.8872 14.0283 15.8259C13.9705 15.7515 13.8774 15.7122 13.7899 15.718C13.6978 15.7249 13.6148 15.7775 13.5677 15.8588C13.1772 16.5369 13.0689 17.2865 13.2557 18.027C13.3578 18.4309 13.5363 18.787 13.7433 19.0755C13.644 19.0253 13.548 18.9624 13.4577 18.8874C13.3747 18.817 13.2585 18.8037 13.1604 18.8505C13.0627 18.8984 13.0005 18.9999 13.0005 19.1113C13.0005 20.3826 13.7736 21.2309 14.4957 21.6741C14.379 21.6597 14.2572 21.6332 14.1344 21.5945C14.0289 21.5616 13.9144 21.5945 13.8415 21.6799C13.7685 21.7648 13.7511 21.8859 13.7966 21.9892C14.2022 22.912 14.9709 23.5468 15.9219 23.7771C15.0915 24.2786 13.9801 24.5244 12.9623 24.4038C12.8305 24.3847 12.7048 24.4707 12.6633 24.6011C12.6217 24.7316 12.6762 24.8747 12.7923 24.9416C14.3363 25.8332 15.7322 26.1518 16.9385 26.1518C18.6941 26.1518 20.049 25.4777 20.8738 24.9139C23.0973 23.3962 24.4831 20.6712 24.2901 18.233C24.6463 17.9623 25.1793 17.4626 25.5098 16.9253C25.5783 16.8168 25.5659 16.6737 25.4806 16.5779Z" fill="#0A142F"/>
</g>
</svg>
