<svg width="20" height="21" viewBox="0 0 20 21" fill="none" xmlns="http://www.w3.org/2000/svg">
<g id="business and finance/wallet">
<path id="Vector" d="M16.9997 9.82008V10.1754L17.3352 10.2922C17.7243 10.4278 18.0616 10.6811 18.3002 11.017C18.5389 11.3529 18.6671 11.7547 18.6671 12.1667C18.6671 12.5788 18.5389 12.9806 18.3002 13.3165C18.0616 13.6524 17.7243 13.9057 17.3352 14.0412L16.9997 14.1581V14.5134V18.0001C16.9997 18.0885 16.9646 18.1733 16.902 18.2358C16.8395 18.2983 16.7547 18.3334 16.6663 18.3334H3.33301C2.80257 18.3334 2.29387 18.1227 1.91879 17.7476C1.54372 17.3726 1.33301 16.8638 1.33301 16.3334V4.66675C1.33301 4.13632 1.54372 3.62761 1.91879 3.25253C2.29387 2.87746 2.80257 2.66675 3.33301 2.66675H16.6663C16.7547 2.66675 16.8395 2.70187 16.902 2.76438C16.9646 2.82689 16.9997 2.91168 16.9997 3.00008C16.9997 3.08849 16.9646 3.17327 16.902 3.23578C16.8395 3.29829 16.7547 3.33341 16.6663 3.33341H3.33301C2.97939 3.33341 2.64025 3.47389 2.3902 3.72394C2.14015 3.97399 1.99967 4.31313 1.99967 4.66675C1.99967 5.02037 2.14015 5.35951 2.3902 5.60956C2.64025 5.85961 2.97939 6.00008 3.33301 6.00008H16.6663C16.7547 6.00008 16.8395 6.0352 16.902 6.09771C16.9646 6.16022 16.9997 6.24501 16.9997 6.33342V9.82008ZM15.833 17.6667H16.333V17.1667V14.6667V14.1667H15.833H13.333C12.8026 14.1667 12.2939 13.956 11.9188 13.581C11.5437 13.2059 11.333 12.6972 11.333 12.1667C11.333 11.6363 11.5437 11.1276 11.9188 10.7525C12.2939 10.3775 12.8026 10.1667 13.333 10.1667H15.833H16.333V9.66675V7.16675V6.66675H15.833H3.33559C3.10939 6.66429 2.88529 6.62293 2.67311 6.54446L1.99967 6.29541V7.01341V16.3334C1.99967 16.687 2.14015 17.0262 2.3902 17.2762C2.64025 17.5263 2.97939 17.6667 3.33301 17.6667H15.833ZM13.333 13.5001H16.6663C17.02 13.5001 17.3591 13.3596 17.6091 13.1096C17.8592 12.8595 17.9997 12.5204 17.9997 12.1667C17.9997 11.8131 17.8592 11.474 17.6091 11.2239C17.3591 10.9739 17.02 10.8334 16.6663 10.8334H13.333C12.9794 10.8334 12.6402 10.9739 12.3902 11.2239C12.1402 11.474 11.9997 11.8131 11.9997 12.1667C11.9997 12.5204 12.1402 12.8595 12.3902 13.1096C12.6402 13.3596 12.9794 13.5001 13.333 13.5001Z" fill="#1E1E1E" stroke="#1E1E1E"/>
</g>
</svg>
