<svg width="40" height="40" viewBox="0 0 40 40" fill="none" xmlns="http://www.w3.org/2000/svg">
<rect x="0.25" y="0.25" width="39.5" height="39.5" rx="3.75" fill="#F4F4F4" stroke="#EAEAEA" stroke-width="0.5"/>
<path d="M10.6996 17.45C10.7946 17.5549 10.8947 17.6551 10.9996 17.75V30C10.9996 30.2652 11.105 30.5196 11.2925 30.7071C11.4801 30.8946 11.7344 31 11.9996 31H27.9996C28.2649 31 28.5192 30.8946 28.7068 30.7071C28.8943 30.5196 28.9996 30.2652 28.9996 30V17.752C29.1046 17.6571 29.2047 17.5569 29.2996 17.452C29.6779 16.9703 29.9406 16.4083 30.0673 15.8091C30.1941 15.2099 30.1815 14.5896 30.0306 13.996L28.9696 9.758C28.9157 9.54157 28.7909 9.3494 28.6151 9.21205C28.4393 9.0747 28.2227 9.00006 27.9996 9H11.9996C11.7766 9.00006 11.5599 9.0747 11.3842 9.21205C11.2084 9.3494 11.0836 9.54157 11.0296 9.758L9.97165 13.994C9.82037 14.5874 9.80734 15.2075 9.93355 15.8067C10.0598 16.4059 10.3219 16.9681 10.6996 17.45ZM20.9996 29H18.9996V24H20.9996V29ZM26.9996 29H22.9996V23C22.9996 22.7348 22.8943 22.4804 22.7068 22.2929C22.5192 22.1054 22.2649 22 21.9996 22H17.9996C17.7344 22 17.4801 22.1054 17.2925 22.2929C17.105 22.4804 16.9996 22.7348 16.9996 23V29H12.9996V18.9C13.7077 19.0616 14.4464 19.0269 15.1361 18.7996C15.8259 18.5723 16.4405 18.1609 16.9136 17.61C16.9396 17.64 16.9666 17.669 16.9936 17.699C17.3825 18.1166 17.8546 18.4481 18.3794 18.6722C18.9042 18.8963 19.4701 19.0079 20.0406 19C20.5978 18.9995 21.1488 18.8838 21.6591 18.6601C22.1694 18.4363 22.6278 18.1095 23.0056 17.7C23.0326 17.67 23.0596 17.641 23.0856 17.611C23.5589 18.1618 24.1736 18.5729 24.8633 18.8C25.553 19.0272 26.2917 19.0618 26.9996 18.9V29ZM11.9106 14.479L12.7806 11H27.2186L28.0886 14.479C28.1634 14.7782 28.169 15.0905 28.105 15.3921C28.041 15.6938 27.9091 15.9769 27.7193 16.2199C27.5294 16.463 27.2867 16.6595 27.0095 16.7947C26.7324 16.9299 26.428 17.0001 26.1196 17C25.6119 16.9968 25.1236 16.8044 24.7501 16.4605C24.3766 16.1166 24.1447 15.6457 24.0996 15.14L24.0576 14.64C24.0332 14.3776 23.9061 14.1356 23.7041 13.9663C23.5022 13.7971 23.2416 13.7145 22.979 13.7364C22.7164 13.7582 22.473 13.8829 22.3018 14.0831C22.1306 14.2834 22.0454 14.5432 22.0646 14.806C22.0889 15.0852 22.0543 15.3665 21.9632 15.6316C21.8721 15.8966 21.7264 16.1397 21.5356 16.345C21.3349 16.5606 21.0903 16.7307 20.8182 16.8437C20.5462 16.9567 20.2531 17.01 19.9586 17C19.6783 17 19.401 16.9418 19.1443 16.8293C18.8875 16.7167 18.6569 16.5522 18.4669 16.346C18.2769 16.1399 18.1317 15.8966 18.0405 15.6316C17.9492 15.3665 17.9138 15.0854 17.9366 14.806C17.9585 14.5417 17.8745 14.2796 17.7031 14.0772C17.5317 13.8749 17.2869 13.7489 17.0226 13.727C16.8916 13.7147 16.7594 13.7286 16.6338 13.7681C16.5082 13.8075 16.3917 13.8716 16.2912 13.9567C16.1907 14.0417 16.1082 14.1459 16.0485 14.2633C15.9888 14.3806 15.9532 14.5087 15.9436 14.64L15.9016 15.14C15.8566 15.6461 15.6244 16.1172 15.2505 16.4612C14.8765 16.8051 14.3877 16.9973 13.8796 17C13.5713 17.0001 13.2669 16.9299 12.9897 16.7947C12.7126 16.6595 12.4698 16.463 12.28 16.2199C12.0902 15.9769 11.9583 15.6938 11.8943 15.3921C11.8303 15.0905 11.8359 14.7782 11.9106 14.479Z" fill="black"/>
</svg>
