<svg width="189" height="55" viewBox="0 0 189 55" fill="none" xmlns="http://www.w3.org/2000/svg">
<path d="M187.762 48.2551C187.762 51.1619 185.359 53.5164 182.386 53.5164H6.43262C3.46101 53.5164 1.04895 51.1619 1.04895 48.2551V6.29752C1.04895 3.3921 3.46101 1.0293 6.43262 1.0293H182.384C185.359 1.0293 187.761 3.3921 187.761 6.29752L187.762 48.2551Z" fill="white"/>
<path d="M181.818 1.09257C185.056 1.09257 187.691 3.66132 187.691 6.81814V47.7272C187.691 50.884 185.056 53.4528 181.818 53.4528H6.99301C3.75524 53.4528 1.12063 50.884 1.12063 47.7272V6.81814C1.12063 3.66132 3.75524 1.09257 6.99301 1.09257H181.818ZM181.818 -3.93592e-05H6.99301C3.1486 -3.93592e-05 0 3.06985 0 6.81814V47.7272C0 51.4755 3.1486 54.5454 6.99301 54.5454H181.818C185.663 54.5454 188.811 51.4755 188.811 47.7272V6.81814C188.811 3.06985 185.663 -3.93592e-05 181.818 -3.93592e-05Z" fill="#A6A6A6"/>
<path d="M42.1371 26.978C42.0965 22.583 45.828 20.4448 45.9986 20.3453C43.8854 17.3412 40.6098 16.9307 39.4588 16.898C36.7077 16.6157 34.0392 18.503 32.6378 18.503C31.2084 18.503 29.0504 16.9253 26.7245 16.9716C23.7315 17.0166 20.9315 18.7062 19.3958 21.3298C16.2266 26.6794 18.5902 34.5407 21.6266 38.8648C23.1455 40.9825 24.9203 43.3471 27.2434 43.2639C29.5161 43.1725 30.3651 41.8512 33.1077 41.8512C35.8252 41.8512 36.6224 43.2639 38.9916 43.2107C41.4308 43.1725 42.9665 41.0834 44.4322 38.9466C46.1874 36.5194 46.8923 34.1289 46.9203 34.0062C46.863 33.9871 42.1833 32.2457 42.1371 26.978Z" fill="black"/>
<path d="M37.6616 14.0534C38.884 12.563 39.7203 10.5353 39.4881 8.47754C37.7189 8.5539 35.5063 9.67072 34.2322 11.1284C33.1049 12.413 32.0979 14.5184 32.3581 16.4984C34.3455 16.643 36.386 15.5207 37.6616 14.0534Z" fill="black"/>
<path d="M68.6014 13.6484C68.6014 15.2534 68.1077 16.4616 67.1217 17.2729C66.2084 18.0216 64.9105 18.3966 63.2294 18.3966C62.3958 18.3966 61.6825 18.3611 61.0853 18.2902V9.52066C61.8643 9.39793 62.7035 9.33521 63.6098 9.33521C65.2112 9.33521 66.4182 9.67475 67.2322 10.3538C68.1441 11.1216 68.6014 12.2193 68.6014 13.6484ZM67.056 13.6879C67.056 12.6475 66.7734 11.8498 66.2084 11.2934C65.6434 10.7384 64.8182 10.4602 63.7315 10.4602C63.2699 10.4602 62.8769 10.4902 62.5511 10.5529V17.2198C62.7315 17.247 63.0616 17.2593 63.5413 17.2593C64.663 17.2593 65.5287 16.9552 66.1385 16.347C66.7483 15.7388 67.056 14.8525 67.056 13.6879Z" fill="black"/>
<path d="M76.7958 15.0504C76.7958 16.039 76.5063 16.849 75.9273 17.4845C75.3203 18.1376 74.5161 18.4635 73.5119 18.4635C72.5441 18.4635 71.7735 18.1513 71.1986 17.524C70.6252 16.8981 70.3385 16.1085 70.3385 15.1567C70.3385 14.1613 70.6336 13.3445 71.2266 12.7104C71.8196 12.0763 72.6168 11.7585 73.621 11.7585C74.5888 11.7585 75.3665 12.0708 75.9553 12.6967C76.5147 13.3049 76.7958 14.0904 76.7958 15.0504ZM75.2756 15.0967C75.2756 14.5035 75.1441 13.9949 74.8826 13.5708C74.5749 13.0581 74.1371 12.8017 73.5679 12.8017C72.9791 12.8017 72.5315 13.0581 72.2238 13.5708C71.9609 13.9949 71.8308 14.5117 71.8308 15.1226C71.8308 15.7158 71.9623 16.2245 72.2238 16.6485C72.5413 17.1613 72.9832 17.4176 73.5539 17.4176C74.1133 17.4176 74.5525 17.1572 74.8686 16.6349C75.1399 16.2026 75.2756 15.6899 75.2756 15.0967Z" fill="black"/>
<path d="M87.7833 11.8896L85.7204 18.3178H84.3777L83.5232 15.5265C83.3064 14.8296 83.1301 14.1369 82.9931 13.4496H82.9665C82.8392 14.156 82.663 14.8474 82.4364 15.5265L81.5287 18.3178H80.1707L78.2309 11.8896H79.7371L80.4826 14.9456C80.663 15.6683 80.8113 16.3569 80.9302 17.0087H80.9567C81.0658 16.4715 81.2462 15.7869 81.5008 14.9592L82.4364 11.891H83.6308L84.5273 14.8937C84.7441 15.626 84.9204 16.331 85.056 17.0101H85.0966C85.1959 16.3487 85.3455 15.6437 85.5441 14.8937L86.3441 11.891H87.7833V11.8896Z" fill="black"/>
<path d="M95.3819 18.3176H93.9161V14.6358C93.9161 13.5012 93.4742 12.9339 92.5875 12.9339C92.1525 12.9339 91.8014 13.0894 91.5287 13.4017C91.2588 13.7139 91.1217 14.0821 91.1217 14.5035V18.3162H89.656V13.7262C89.656 13.1617 89.6378 12.5494 89.6029 11.8867H90.891L90.9595 12.8917H91.0001C91.1707 12.5794 91.4252 12.3217 91.7595 12.1158C92.1567 11.8758 92.6014 11.7544 93.0882 11.7544C93.7035 11.7544 94.2154 11.948 94.6224 12.3367C95.1287 12.8126 95.3819 13.523 95.3819 14.4667V18.3176Z" fill="black"/>
<path d="M99.4238 18.3177H97.9595V8.93994H99.4238V18.3177Z" fill="black"/>
<path d="M108.053 15.0504C108.053 16.039 107.764 16.849 107.185 17.4845C106.578 18.1376 105.772 18.4635 104.769 18.4635C103.8 18.4635 103.029 18.1513 102.456 17.524C101.883 16.8981 101.596 16.1085 101.596 15.1567C101.596 14.1613 101.891 13.3445 102.484 12.7104C103.077 12.0763 103.874 11.7585 104.877 11.7585C105.846 11.7585 106.622 12.0708 107.213 12.6967C107.772 13.3049 108.053 14.0904 108.053 15.0504ZM106.532 15.0967C106.532 14.5035 106.4 13.9949 106.139 13.5708C105.832 13.0581 105.393 12.8017 104.825 12.8017C104.235 12.8017 103.787 13.0581 103.481 13.5708C103.218 13.9949 103.088 14.5117 103.088 15.1226C103.088 15.7158 103.22 16.2245 103.481 16.6485C103.799 17.1613 104.241 17.4176 104.811 17.4176C105.371 17.4176 105.808 17.1572 106.125 16.6349C106.397 16.2026 106.532 15.6899 106.532 15.0967Z" fill="black"/>
<path d="M115.147 18.3176H113.831L113.722 17.5772H113.681C113.231 18.1676 112.589 18.4635 111.755 18.4635C111.133 18.4635 110.629 18.2685 110.25 17.8813C109.906 17.5295 109.734 17.0917 109.734 16.5722C109.734 15.7867 110.07 15.1881 110.746 14.7735C111.42 14.359 112.368 14.1558 113.589 14.1654V14.0454C113.589 13.1985 113.133 12.7758 112.22 12.7758C111.569 12.7758 110.996 12.9354 110.501 13.2517L110.203 12.3135C110.815 11.944 111.572 11.7585 112.464 11.7585C114.187 11.7585 115.052 12.6449 115.052 14.4176V16.7849C115.052 17.4272 115.084 17.9385 115.147 18.3176ZM113.625 16.1085V15.1172C112.008 15.0899 111.2 15.5222 111.2 16.4126C111.2 16.7481 111.292 16.999 111.481 17.1667C111.67 17.3345 111.911 17.4176 112.197 17.4176C112.519 17.4176 112.82 17.3181 113.094 17.1204C113.369 16.9213 113.539 16.669 113.601 16.3595C113.617 16.2899 113.625 16.2054 113.625 16.1085Z" fill="black"/>
<path d="M123.476 18.3177H122.175L122.106 17.2854H122.066C121.65 18.0708 120.943 18.4636 119.948 18.4636C119.154 18.4636 118.492 18.1595 117.968 17.5513C117.443 16.9431 117.182 16.1536 117.182 15.184C117.182 14.1436 117.466 13.3008 118.036 12.6572C118.589 12.0572 119.266 11.7572 120.071 11.7572C120.957 11.7572 121.576 12.0477 121.929 12.6299H121.957V8.93994H123.424V16.5859C123.424 17.2118 123.441 17.7886 123.476 18.3177ZM121.957 15.6068V14.5349C121.957 14.3495 121.943 14.1995 121.916 14.0849C121.834 13.7413 121.656 13.4522 121.386 13.219C121.113 12.9859 120.785 12.8686 120.406 12.8686C119.859 12.8686 119.431 13.0799 119.116 13.504C118.804 13.9281 118.646 14.4695 118.646 15.1308C118.646 15.7663 118.796 16.2818 119.097 16.6786C119.414 17.1013 119.842 17.3127 120.378 17.3127C120.859 17.3127 121.243 17.1368 121.536 16.7836C121.818 16.4577 121.957 16.0649 121.957 15.6068Z" fill="black"/>
<path d="M136.011 15.0504C136.011 16.039 135.722 16.849 135.143 17.4845C134.536 18.1376 133.733 18.4635 132.727 18.4635C131.761 18.4635 130.99 18.1513 130.414 17.524C129.841 16.8981 129.554 16.1085 129.554 15.1567C129.554 14.1613 129.849 13.3445 130.442 12.7104C131.035 12.0763 131.832 11.7585 132.838 11.7585C133.804 11.7585 134.583 12.0708 135.171 12.6967C135.73 13.3049 136.011 14.0904 136.011 15.0504ZM134.492 15.0967C134.492 14.5035 134.361 13.9949 134.099 13.5708C133.79 13.0581 133.354 12.8017 132.783 12.8017C132.196 12.8017 131.748 13.0581 131.439 13.5708C131.176 13.9949 131.046 14.5117 131.046 15.1226C131.046 15.7158 131.178 16.2245 131.439 16.6485C131.757 17.1613 132.199 17.4176 132.769 17.4176C133.329 17.4176 133.769 17.1572 134.085 16.6349C134.355 16.2026 134.492 15.6899 134.492 15.0967Z" fill="black"/>
<path d="M143.892 18.3176H142.428V14.6358C142.428 13.5012 141.986 12.9339 141.098 12.9339C140.663 12.9339 140.312 13.0894 140.041 13.4017C139.769 13.7139 139.634 14.0821 139.634 14.5035V18.3162H138.166V13.7262C138.166 13.1617 138.15 12.5494 138.115 11.8867H139.401L139.47 12.8917H139.51C139.682 12.5794 139.937 12.3217 140.27 12.1158C140.669 11.8758 141.112 11.7544 141.6 11.7544C142.214 11.7544 142.726 11.948 143.133 12.3367C143.641 12.8126 143.892 13.523 143.892 14.4667V18.3176Z" fill="black"/>
<path d="M153.757 12.9599H152.143V16.0827C152.143 16.8763 152.429 17.2731 152.997 17.2731C153.26 17.2731 153.478 17.2513 153.65 17.2063L153.688 18.2904C153.399 18.3968 153.018 18.4499 152.55 18.4499C151.971 18.4499 151.52 18.2781 151.194 17.9345C150.867 17.5908 150.705 17.0127 150.705 16.2013V12.9599H149.741V11.8895H150.705V10.7113L152.141 10.2886V11.8881H153.755V12.9599H153.757Z" fill="black"/>
<path d="M161.516 18.3177H160.049V14.6631C160.049 13.5109 159.607 12.934 158.722 12.934C158.042 12.934 157.578 13.2681 157.323 13.9363C157.28 14.0768 157.255 14.2486 157.255 14.4504V18.3163H155.79V8.93994H157.255V12.814H157.283C157.744 12.109 158.406 11.7572 159.263 11.7572C159.87 11.7572 160.372 11.9509 160.771 12.3395C161.267 12.8236 161.516 13.5436 161.516 14.4954V18.3177Z" fill="black"/>
<path d="M169.52 14.7993C169.52 15.0556 169.501 15.2711 169.466 15.447H165.07C165.09 16.0825 165.299 16.5665 165.706 16.902C166.078 17.202 166.558 17.352 167.145 17.352C167.796 17.352 168.389 17.2511 168.923 17.0479L169.152 18.0406C168.527 18.3052 167.792 18.4375 166.94 18.4375C165.919 18.4375 165.115 18.1443 164.533 17.5579C163.948 16.9715 163.659 16.1847 163.659 15.1975C163.659 14.2279 163.929 13.4206 164.473 12.777C165.041 12.0897 165.808 11.7461 166.778 11.7461C167.726 11.7461 168.446 12.0897 168.933 12.777C169.326 13.3225 169.52 13.9975 169.52 14.7993ZM168.122 14.4297C168.133 14.0056 168.036 13.6402 167.838 13.332C167.583 12.9352 167.196 12.7361 166.671 12.7361C166.193 12.7361 165.803 12.9297 165.505 13.3184C165.262 13.6279 165.118 13.9975 165.07 14.4297H168.122Z" fill="black"/>
<path d="M75.0279 42.96H71.8517L70.1119 37.6296H64.0643L62.407 42.96H59.3147L65.3063 24.8127H69.007L75.0279 42.96ZM69.5874 35.3932L68.014 30.6546C67.8475 30.1705 67.5356 29.0305 67.0755 27.2359H67.0195C66.8363 28.0077 66.5412 29.1477 66.1356 30.6546L64.5902 35.3932H69.5874Z" fill="black"/>
<path d="M90.4364 36.2564C90.4364 38.4819 89.8196 40.241 88.586 41.5323C87.4811 42.6819 86.1091 43.256 84.4713 43.256C82.7035 43.256 81.4336 42.6369 80.6601 41.3987H80.6042V48.2919H77.6224V34.1823C77.6224 32.7832 77.5846 31.3473 77.5119 29.8746H80.1343L80.3007 31.9487H80.3566C81.351 30.386 82.8601 29.606 84.8853 29.606C86.4685 29.606 87.7902 30.2155 88.8475 31.436C89.9077 32.6578 90.4364 34.2641 90.4364 36.2564ZM87.3986 36.3628C87.3986 35.0891 87.1049 34.0391 86.5147 33.2128C85.8699 32.351 85.0042 31.92 83.9189 31.92C83.1832 31.92 82.5147 32.16 81.9175 32.6332C81.3189 33.1105 80.9273 33.7337 80.744 34.5055C80.6517 34.8655 80.6056 35.16 80.6056 35.3919V37.5737C80.6056 38.5255 80.9049 39.3287 81.5035 39.9846C82.1021 40.6405 82.8797 40.9678 83.8364 40.9678C84.9594 40.9678 85.8336 40.545 86.4587 39.7023C87.0853 38.8582 87.3986 37.7455 87.3986 36.3628Z" fill="black"/>
<path d="M105.873 36.2564C105.873 38.4819 105.256 40.241 104.021 41.5323C102.917 42.6819 101.545 43.256 99.9076 43.256C98.1398 43.256 96.8699 42.6369 96.0978 41.3987H96.0419V48.2919H93.0601V34.1823C93.0601 32.7832 93.0223 31.3473 92.9496 29.8746H95.572L95.7384 31.9487H95.7943C96.7874 30.386 98.2965 29.606 100.323 29.606C101.905 29.606 103.227 30.2155 104.287 31.436C105.343 32.6578 105.873 34.2641 105.873 36.2564ZM102.835 36.3628C102.835 35.0891 102.54 34.0391 101.95 33.2128C101.305 32.351 100.442 31.92 99.3552 31.92C98.6181 31.92 97.951 32.16 97.3524 32.6332C96.7538 33.1105 96.3636 33.7337 96.1804 34.5055C96.0895 34.8655 96.0419 35.16 96.0419 35.3919V37.5737C96.0419 38.5255 96.3412 39.3287 96.937 39.9846C97.5356 40.6391 98.3132 40.9678 99.2727 40.9678C100.396 40.9678 101.27 40.545 101.895 39.7023C102.522 38.8582 102.835 37.7455 102.835 36.3628Z" fill="black"/>
<path d="M123.131 37.871C123.131 39.4146 122.582 40.6705 121.478 41.6401C120.266 42.6996 118.578 43.2287 116.408 43.2287C114.406 43.2287 112.8 42.8523 111.585 42.0982L112.276 39.6751C113.585 40.4469 115.021 40.8342 116.586 40.8342C117.709 40.8342 118.583 40.586 119.211 40.0923C119.836 39.5987 120.148 38.936 120.148 38.1096C120.148 37.3732 119.891 36.7528 119.375 36.2496C118.862 35.7464 118.004 35.2787 116.807 34.8464C113.548 33.6614 111.92 31.9255 111.92 29.6428C111.92 28.151 112.491 26.9278 113.634 25.976C114.772 25.0228 116.291 24.5469 118.19 24.5469C119.884 24.5469 121.291 24.8346 122.414 25.4087L121.669 27.7787C120.62 27.2223 119.434 26.9441 118.106 26.9441C117.057 26.9441 116.238 27.1964 115.65 27.6982C115.154 28.1469 114.905 28.6937 114.905 29.3414C114.905 30.0587 115.189 30.6519 115.759 31.1182C116.256 31.5491 117.158 32.0155 118.467 32.5187C120.069 33.1473 121.245 33.8823 122.001 34.7251C122.755 35.5651 123.131 36.6164 123.131 37.871Z" fill="black"/>
<path d="M132.99 32.0563H129.703V38.4095C129.703 40.0254 130.282 40.8327 131.443 40.8327C131.976 40.8327 132.418 40.7877 132.768 40.6976L132.85 42.9054C132.263 43.1195 131.489 43.2272 130.531 43.2272C129.354 43.2272 128.434 42.8767 127.769 42.1772C127.108 41.4763 126.775 40.3008 126.775 38.6495V32.0536H124.817V29.8717H126.775V27.4758L129.703 26.614V29.8717H132.99V32.0563Z" fill="black"/>
<path d="M147.82 36.3095C147.82 38.3208 147.229 39.9722 146.052 41.2635C144.817 42.5931 143.178 43.2558 141.134 43.2558C139.165 43.2558 137.597 42.619 136.428 41.3454C135.259 40.0717 134.674 38.464 134.674 36.5263C134.674 34.4985 135.275 32.8376 136.482 31.5463C137.687 30.2535 139.312 29.6072 141.355 29.6072C143.324 29.6072 144.909 30.244 146.105 31.519C147.249 32.7558 147.82 34.3526 147.82 36.3095ZM144.726 36.4035C144.726 35.1967 144.461 34.1617 143.926 33.2985C143.301 32.254 142.407 31.7331 141.249 31.7331C140.05 31.7331 139.14 32.2554 138.515 33.2985C137.979 34.1631 137.715 35.2145 137.715 36.4581C137.715 37.6649 137.979 38.6999 138.515 39.5617C139.159 40.6063 140.06 41.1272 141.222 41.1272C142.361 41.1272 143.255 40.5954 143.899 39.5345C144.449 38.6549 144.726 37.609 144.726 36.4035Z" fill="black"/>
<path d="M157.512 32.4314C157.217 32.3782 156.902 32.351 156.572 32.351C155.523 32.351 154.712 32.7369 154.141 33.51C153.645 34.1919 153.396 35.0537 153.396 36.0941V42.96H150.415L150.443 33.9955C150.443 32.4873 150.406 31.1141 150.331 29.876H152.929L153.038 32.3796H153.12C153.435 31.5191 153.931 30.8264 154.611 30.3069C155.275 29.8391 155.993 29.606 156.766 29.606C157.042 29.606 157.291 29.625 157.512 29.6591V32.4314Z" fill="black"/>
<path d="M170.847 35.7981C170.847 36.319 170.812 36.7581 170.738 37.1168H161.793C161.828 38.4095 162.26 39.3981 163.091 40.0799C163.845 40.6895 164.819 40.9949 166.017 40.9949C167.341 40.9949 168.55 40.789 169.636 40.3758L170.103 42.394C168.833 42.934 167.334 43.2027 165.604 43.2027C163.523 43.2027 161.889 42.6054 160.701 41.4122C159.515 40.219 158.92 38.6168 158.92 36.6068C158.92 34.6336 159.473 32.9904 160.579 31.6799C161.737 30.2808 163.302 29.5813 165.271 29.5813C167.206 29.5813 168.67 30.2808 169.664 31.6799C170.452 32.7913 170.847 34.1658 170.847 35.7981ZM168.004 35.044C168.024 34.1822 167.829 33.4377 167.425 32.809C166.909 32.0004 166.116 31.5968 165.049 31.5968C164.074 31.5968 163.281 31.9908 162.675 32.7818C162.179 33.4104 161.884 34.1645 161.793 35.0427H168.004V35.044Z" fill="black"/>
</svg>
