<svg width="32" height="32" viewBox="0 0 32 32" fill="none" xmlns="http://www.w3.org/2000/svg">
<path d="M11.75 4C10.2312 4 9 5.23122 9 6.75V25.2497C9 26.7684 10.2312 27.9997 11.75 27.9997H15.0804L15.7395 25.7486C15.2661 24.7648 15.0011 23.6622 15.0011 22.5C15.0011 18.3579 18.3589 15 22.5011 15C22.6687 15 22.8351 15.0055 23 15.0163V6.75C23 5.23122 21.7688 4 20.25 4H11.75ZM29.0047 22.5C29.0047 26.0898 26.0945 29 22.5047 29C21.3627 29 20.2896 28.7055 19.357 28.1884L16.6404 28.9793C16.2613 29.0897 15.9098 28.7377 16.0208 28.3588L16.8152 25.6457C16.2987 24.7136 16.0047 23.6411 16.0047 22.5C16.0047 18.9101 18.9148 16 22.5047 16C26.0945 16 29.0047 18.9101 29.0047 22.5ZM20.0047 21C19.7285 21 19.5047 21.2239 19.5047 21.5C19.5047 21.7761 19.7285 22 20.0047 22H25.0047C25.2808 22 25.5047 21.7761 25.5047 21.5C25.5047 21.2239 25.2808 21 25.0047 21H20.0047ZM19.5047 23.5C19.5047 23.7761 19.7285 24 20.0047 24H22.5047C22.7808 24 23.0047 23.7761 23.0047 23.5C23.0047 23.2239 22.7808 23 22.5047 23H20.0047C19.7285 23 19.5047 23.2239 19.5047 23.5Z" fill="#F2F8FF"/>
</svg>
