<svg width="189" height="55" viewBox="0 0 189 55" fill="none" xmlns="http://www.w3.org/2000/svg">
<path d="M182.007 54.5454H7.18182C3.33741 54.5454 0.188812 51.4755 0.188812 47.7272V6.81814C0.188812 3.06984 3.33741 -4.40833e-05 7.18182 -4.40833e-05H182.007C185.851 -4.40833e-05 189 3.06984 189 6.81814V47.7272C189 51.4755 185.851 54.5454 182.007 54.5454Z" fill="white"/>
<path d="M182.007 1.09257C185.245 1.09257 187.879 3.66132 187.879 6.81814V47.7272C187.879 50.884 185.245 53.4528 182.007 53.4528H7.18182C3.94406 53.4528 1.30944 50.884 1.30944 47.7272V6.81814C1.30944 3.66132 3.94406 1.09257 7.18182 1.09257H182.007ZM182.007 -4.40833e-05H7.18182C3.33741 -4.40833e-05 0.188812 3.06984 0.188812 6.81814V47.7272C0.188812 51.4755 3.33741 54.5454 7.18182 54.5454H182.007C185.851 54.5454 189 51.4755 189 47.7272V6.81814C189 3.06984 185.851 -4.40833e-05 182.007 -4.40833e-05Z" fill="#A6A6A6"/>
<path d="M14.7833 10.2802C14.3725 10.6995 14.1347 11.3523 14.1347 12.1978V42.3546C14.1347 43.2001 14.3725 43.8529 14.7833 44.2722L14.8847 44.3643L32.2169 27.4722V27.0733L14.8847 10.1813L14.7833 10.2802Z" fill="url(#paint0_linear_603_13315)"/>
<path d="M37.9878 33.1057L32.2168 27.4722V27.0733L37.9948 21.4398L38.1242 21.5131L44.9668 25.3091C46.9196 26.3864 46.9196 28.1591 44.9668 29.2432L38.1242 33.0324L37.9878 33.1057Z" fill="url(#paint1_linear_603_13315)"/>
<path d="M38.1242 33.0325L32.2168 27.2729L14.7833 44.2723C15.4319 44.9371 16.4896 45.0172 17.6924 44.3524L38.1242 33.0325Z" fill="url(#paint2_linear_603_13315)"/>
<path d="M38.1242 21.513L17.6924 10.1932C16.4896 9.53521 15.4319 9.61532 14.7833 10.2801L32.2168 27.2727L38.1242 21.513Z" fill="url(#paint3_linear_603_13315)"/>
<path d="M66.5069 13.9687C66.5069 15.1073 66.1573 16.0193 65.4685 16.6994C64.6765 17.5056 63.645 17.9113 62.3811 17.9113C61.173 17.9113 60.1415 17.4988 59.2954 16.6858C58.4475 15.8608 58.0244 14.8483 58.0244 13.6363C58.0244 12.4244 58.4475 11.4119 59.2954 10.5937C60.1415 9.77383 61.173 9.36133 62.3811 9.36133C62.9825 9.36133 63.5559 9.48235 64.1031 9.70735C64.6485 9.93406 65.0926 10.2409 65.4143 10.6193L64.6835 11.3386C64.1223 10.6926 63.3583 10.3738 62.3811 10.3738C61.4999 10.3738 60.736 10.6738 60.0874 11.2789C59.4457 11.8858 59.1241 12.6716 59.1241 13.6363C59.1241 14.6011 59.4457 15.3937 60.0874 16.0005C60.736 16.5988 61.4999 16.9056 62.3811 16.9056C63.3164 16.9056 64.1031 16.5988 64.7237 15.9937C65.1328 15.5931 65.3653 15.0409 65.4265 14.3352H62.3811V13.35H66.444C66.4929 13.563 66.5069 13.7693 66.5069 13.9687Z" fill="black" stroke="black" stroke-width="0.167832" stroke-miterlimit="10"/>
<path d="M72.9528 10.5528H69.1363V13.1437H72.5769V14.1289H69.1363V16.7198H72.9528V17.7238H68.0559V9.54883H72.9528V10.5528Z" fill="black" stroke="black" stroke-width="0.167832" stroke-miterlimit="10"/>
<path d="M77.5017 17.7238H76.4212V10.5528H74.0803V9.54883H79.8443V10.5528H77.5017V17.7238Z" fill="black" stroke="black" stroke-width="0.167832" stroke-miterlimit="10"/>
<path d="M84.0157 17.7238V9.54883H85.0943V17.7238H84.0157Z" fill="black" stroke="black" stroke-width="0.167832" stroke-miterlimit="10"/>
<path d="M89.8757 17.7238H88.8041V10.5528H86.4544V9.54883H92.2254V10.5528H89.8757V17.7238Z" fill="black" stroke="black" stroke-width="0.167832" stroke-miterlimit="10"/>
<path d="M103.138 16.6721C102.311 17.4988 101.287 17.9113 100.065 17.9113C98.8357 17.9113 97.8112 17.4988 96.9843 16.6721C96.1591 15.8471 95.7482 14.8346 95.7482 13.6363C95.7482 12.438 96.1591 11.4255 96.9843 10.6005C97.8112 9.77383 98.8357 9.36133 100.065 9.36133C101.28 9.36133 102.304 9.77383 103.131 10.6074C103.963 11.4392 104.374 12.4449 104.374 13.6363C104.374 14.8346 103.963 15.8471 103.138 16.6721ZM97.7832 15.9869C98.4056 16.5988 99.1626 16.9056 100.065 16.9056C100.96 16.9056 101.724 16.5988 102.339 15.9869C102.96 15.375 103.274 14.5892 103.274 13.6363C103.274 12.6835 102.96 11.8977 102.339 11.2858C101.724 10.6738 100.96 10.367 100.065 10.367C99.1626 10.367 98.4056 10.6738 97.7832 11.2858C97.1626 11.8977 96.8479 12.6835 96.8479 13.6363C96.8479 14.5892 97.1626 15.375 97.7832 15.9869Z" fill="black" stroke="black" stroke-width="0.167832" stroke-miterlimit="10"/>
<path d="M105.89 17.7238V9.54883H107.201L111.278 15.9068H111.325L111.278 14.3352V9.54883H112.357V17.7238H111.231L106.961 11.0522H106.914L106.961 12.6306V17.7238H105.89Z" fill="black" stroke="black" stroke-width="0.167832" stroke-miterlimit="10"/>
<path d="M95.4825 29.6624C92.1975 29.6624 89.514 32.0999 89.514 35.463C89.514 38.7988 92.1975 41.2619 95.4825 41.2619C98.7744 41.2619 101.458 38.7988 101.458 35.463C101.458 32.0999 98.7744 29.6624 95.4825 29.6624ZM95.4825 38.9778C93.68 38.9778 92.1293 37.5272 92.1293 35.463C92.1293 33.3715 93.68 31.9465 95.4825 31.9465C97.2849 31.9465 98.8426 33.3715 98.8426 35.463C98.8426 37.5272 97.2849 38.9778 95.4825 38.9778ZM82.4598 29.6624C79.1678 29.6624 76.4912 32.0999 76.4912 35.463C76.4912 38.7988 79.1678 41.2619 82.4598 41.2619C85.75 41.2619 88.4283 38.7988 88.4283 35.463C88.4283 32.0999 85.75 29.6624 82.4598 29.6624ZM82.4598 38.9778C80.6556 38.9778 79.0996 37.5272 79.0996 35.463C79.0996 33.3715 80.6556 31.9465 82.4598 31.9465C84.2622 31.9465 85.8129 33.3715 85.8129 35.463C85.8129 37.5272 84.2622 38.9778 82.4598 38.9778ZM66.9633 31.4403V33.905H73C72.8234 35.2823 72.3514 36.2948 71.6276 37.0005C70.7465 37.8528 69.3741 38.7988 66.9633 38.7988C63.2482 38.7988 60.3391 35.8755 60.3391 32.2533C60.3391 28.6312 63.2482 25.7079 66.9633 25.7079C68.972 25.7079 70.4335 26.4732 71.5122 27.4653L73.2937 25.7283C71.7849 24.3238 69.7779 23.2448 66.9633 23.2448C61.8689 23.2448 57.5874 27.2863 57.5874 32.2533C57.5874 37.2204 61.8689 41.2619 66.9633 41.2619C69.7168 41.2619 71.7849 40.3823 73.4108 38.7323C75.0769 37.1079 75.5961 34.8238 75.5961 32.9795C75.5961 32.4067 75.5472 31.88 75.4598 31.4403H66.9633ZM130.33 33.3511C129.839 32.0539 128.323 29.6624 125.236 29.6624C122.177 29.6624 119.629 32.013 119.629 35.463C119.629 38.7119 122.15 41.2619 125.53 41.2619C128.262 41.2619 129.839 39.6374 130.488 38.6914L128.46 37.3738C127.783 38.3386 126.862 38.9778 125.53 38.9778C124.206 38.9778 123.257 38.3863 122.649 37.2204L130.605 34.0107L130.33 33.3511ZM122.218 35.2823C122.15 33.0459 124 31.9005 125.325 31.9005C126.364 31.9005 127.245 32.4067 127.538 33.1312L122.218 35.2823ZM115.752 40.909H118.367V23.8636H115.752V40.909ZM111.468 30.9545H111.381C110.794 30.2761 109.673 29.6624 108.253 29.6624C105.274 29.6624 102.551 32.2124 102.551 35.4817C102.551 38.7323 105.274 41.2619 108.253 41.2619C109.673 41.2619 110.794 40.6431 111.381 39.9442H111.468V40.7761C111.468 42.9937 110.253 44.1851 108.294 44.1851C106.696 44.1851 105.705 43.0601 105.295 42.1141L103.021 43.0397C103.677 44.5772 105.413 46.4692 108.294 46.4692C111.36 46.4692 113.948 44.7101 113.948 40.43V30.0153H111.468V30.9545ZM108.477 38.9778C106.675 38.9778 105.166 37.5067 105.166 35.4817C105.166 33.438 106.675 31.9465 108.477 31.9465C110.253 31.9465 111.654 33.438 111.654 35.4817C111.654 37.5067 110.253 38.9778 108.477 38.9778ZM142.575 23.8636H136.32V40.909H138.928V34.4505H142.575C145.472 34.4505 148.313 32.4067 148.313 29.1562C148.313 25.9073 145.465 23.8636 142.575 23.8636ZM142.643 32.0795H138.928V26.2346H142.643C144.591 26.2346 145.703 27.8113 145.703 29.1562C145.703 30.4755 144.591 32.0795 142.643 32.0795ZM158.767 29.63C156.883 29.63 154.923 30.4414 154.117 32.2397L156.432 33.1857C156.93 32.2397 157.846 31.9329 158.815 31.9329C160.168 31.9329 161.54 32.7255 161.561 34.1249V34.3039C161.089 34.038 160.079 33.6442 158.836 33.6442C156.343 33.6442 153.802 34.9823 153.802 37.4795C153.802 39.7636 155.844 41.2346 158.14 41.2346C159.895 41.2346 160.864 40.4624 161.472 39.5641H161.561V40.8817H164.08V34.3431C164.08 31.3209 161.766 29.63 158.767 29.63ZM158.453 38.9709C157.6 38.9709 156.411 38.5584 156.411 37.5272C156.411 36.2079 157.893 35.7016 159.177 35.7016C160.325 35.7016 160.864 35.9488 161.561 36.2744C161.357 37.8528 159.963 38.9709 158.453 38.9709ZM173.259 30.0033L170.26 37.3925H170.171L167.072 30.0033H164.259L168.916 40.3295L166.259 46.0755H168.984L176.161 30.0033H173.259ZM149.746 40.909H152.362V23.8636H149.746V40.909Z" fill="black"/>
<defs>
<linearGradient id="paint0_linear_603_13315" x1="30.678" y1="42.6686" x2="7.80022" y2="19.2043" gradientUnits="userSpaceOnUse">
<stop stop-color="#00A0FF"/>
<stop offset="0.0066" stop-color="#00A1FF"/>
<stop offset="0.2601" stop-color="#00BEFF"/>
<stop offset="0.5122" stop-color="#00D2FF"/>
<stop offset="0.7604" stop-color="#00DFFF"/>
<stop offset="1" stop-color="#00E3FF"/>
</linearGradient>
<linearGradient id="paint1_linear_603_13315" x1="47.5097" y1="27.2708" x2="13.6679" y2="27.2708" gradientUnits="userSpaceOnUse">
<stop stop-color="#FFE000"/>
<stop offset="0.4087" stop-color="#FFBD00"/>
<stop offset="0.7754" stop-color="#FFA500"/>
<stop offset="1" stop-color="#FF9C00"/>
</linearGradient>
<linearGradient id="paint2_linear_603_13315" x1="34.9119" y1="24.1418" x2="3.88784" y2="-7.67776" gradientUnits="userSpaceOnUse">
<stop stop-color="#FF3A44"/>
<stop offset="1" stop-color="#C31162"/>
</linearGradient>
<linearGradient id="paint3_linear_603_13315" x1="10.3949" y1="54.3052" x2="24.2485" y2="40.0964" gradientUnits="userSpaceOnUse">
<stop stop-color="#32A071"/>
<stop offset="0.0685" stop-color="#2DA771"/>
<stop offset="0.4762" stop-color="#15CF74"/>
<stop offset="0.8009" stop-color="#06E775"/>
<stop offset="1" stop-color="#00F076"/>
</linearGradient>
</defs>
</svg>
