<svg width="19" height="18" viewBox="0 0 19 18" fill="none" xmlns="http://www.w3.org/2000/svg">
<path d="M10.8509 15.283C10.8877 15.4308 11.0167 15.5405 11.169 15.5405C11.3227 15.5405 11.4524 15.4286 11.4889 15.2793C11.6039 14.8089 11.8276 14.3027 12.1677 13.7608C12.9262 12.5637 14.4082 11.3889 15.7461 11.0096C15.8955 10.9673 16.0048 10.8347 16.0048 10.6795C16.0048 10.5256 15.8973 10.3936 15.749 10.3525C15.1431 10.1844 14.5482 9.89136 13.9727 9.48185C12.7258 8.59961 11.7858 7.31174 11.49 6.10865C11.4531 5.95858 11.3224 5.84668 11.1679 5.84668C11.0157 5.84668 10.8863 5.95534 10.8488 6.10285C10.7021 6.68094 10.4307 7.24354 10.0346 7.81573C9.19138 9.03894 7.90125 9.96046 6.56367 10.349C6.41649 10.3918 6.31104 10.524 6.31104 10.6773C6.31104 10.8339 6.42112 10.9679 6.57206 11.0097C7.20704 11.1856 7.84942 11.5164 8.48204 11.9937C9.83258 13.0066 10.5925 14.245 10.8509 15.283Z" fill="#1E1E1E"/>
<path d="M5.6022 7.8586C5.62265 7.94073 5.69432 8.00165 5.77897 8.00165C5.86435 8.00165 5.9364 7.93953 5.95667 7.85658C6.02055 7.59524 6.14485 7.31402 6.33378 7.01292C6.75519 6.34788 7.57849 5.6952 8.32181 5.48452C8.40476 5.46101 8.46552 5.38735 8.46552 5.30113C8.46552 5.21562 8.40576 5.1423 8.32337 5.11944C7.98679 5.02606 7.65627 4.86325 7.33654 4.63575C6.64381 4.14561 6.12162 3.43013 5.95727 2.76175C5.93677 2.67838 5.86419 2.61621 5.77833 2.61621C5.69378 2.61621 5.62188 2.67658 5.60108 2.75853C5.51957 3.07969 5.36878 3.39225 5.1487 3.71013C4.68027 4.38969 3.96353 4.90164 3.22043 5.1175C3.13866 5.14126 3.08008 5.21473 3.08008 5.29988C3.08008 5.38689 3.14124 5.46131 3.22509 5.48454C3.57786 5.58225 3.93474 5.76606 4.28619 6.0312C5.03649 6.59392 5.45865 7.28193 5.6022 7.8586Z" fill="#1E1E1E"/>
</svg>
