<svg width="25" height="24" viewBox="0 0 25 24" fill="none" xmlns="http://www.w3.org/2000/svg">
<circle cx="12.5" cy="12" r="11.8" fill="#F2F8FF" stroke="#F2F8FF" stroke-width="0.4"/>
<path d="M12.5 9.84375C12.0735 9.84375 11.6566 9.97021 11.3021 10.2071C10.9475 10.4441 10.6711 10.7808 10.5079 11.1748C10.3447 11.5688 10.302 12.0024 10.3852 12.4207C10.4684 12.8389 10.6737 13.2231 10.9753 13.5247C11.2769 13.8263 11.6611 14.0316 12.0793 14.1148C12.4976 14.198 12.9312 14.1553 13.3252 13.9921C13.7192 13.8289 14.0559 13.5525 14.2929 13.1979C14.5298 12.8434 14.6562 12.4265 14.6562 12C14.6555 11.4284 14.4281 10.8803 14.0239 10.4761C13.6197 10.0719 13.0716 9.84449 12.5 9.84375ZM12.5 13.5938C12.1848 13.5938 11.8767 13.5003 11.6146 13.3252C11.3525 13.15 11.1482 12.9011 11.0276 12.6099C10.9069 12.3187 10.8754 11.9982 10.9369 11.6891C10.9984 11.3799 11.1502 11.0959 11.373 10.873C11.5959 10.6502 11.8799 10.4984 12.1891 10.4369C12.4982 10.3754 12.8187 10.4069 13.1099 10.5276C13.4011 10.6482 13.65 10.8525 13.8252 11.1146C14.0003 11.3767 14.0938 11.6848 14.0938 12C14.0938 12.4227 13.9258 12.8281 13.627 13.127C13.3281 13.4258 12.9227 13.5938 12.5 13.5938ZM14.75 7.21875H10.25C9.5789 7.21949 8.9355 7.48642 8.46096 7.96096C7.98642 8.4355 7.71949 9.0789 7.71875 9.75V14.25C7.71949 14.9211 7.98642 15.5645 8.46096 16.039C8.9355 16.5136 9.5789 16.7805 10.25 16.7812H14.75C15.4211 16.7805 16.0645 16.5136 16.539 16.039C17.0136 15.5645 17.2805 14.9211 17.2812 14.25V9.75C17.2805 9.0789 17.0136 8.4355 16.539 7.96096C16.0645 7.48642 15.4211 7.21949 14.75 7.21875ZM16.7188 14.25C16.7188 14.7721 16.5113 15.2729 16.1421 15.6421C15.7729 16.0113 15.2721 16.2188 14.75 16.2188H10.25C9.72785 16.2188 9.2271 16.0113 8.85788 15.6421C8.48867 15.2729 8.28125 14.7721 8.28125 14.25V9.75C8.28125 9.22785 8.48867 8.7271 8.85788 8.35788C9.2271 7.98867 9.72785 7.78125 10.25 7.78125H14.75C15.2721 7.78125 15.7729 7.98867 16.1421 8.35788C16.5113 8.7271 16.7188 9.22785 16.7188 9.75V14.25ZM15.4062 9.5625C15.4062 9.65521 15.3788 9.74584 15.3273 9.82292C15.2757 9.90001 15.2025 9.96009 15.1169 9.99557C15.0312 10.031 14.937 10.0403 14.8461 10.0222C14.7551 10.0042 14.6716 9.95951 14.606 9.89396C14.5405 9.8284 14.4958 9.74488 14.4778 9.65395C14.4597 9.56302 14.469 9.46877 14.5044 9.38312C14.5399 9.29746 14.6 9.22426 14.6771 9.17275C14.7542 9.12124 14.8448 9.09375 14.9375 9.09375C15.0618 9.09375 15.181 9.14314 15.269 9.23104C15.3569 9.31895 15.4062 9.43818 15.4062 9.5625Z" fill="#101626"/>
</svg>
