<svg width="617" height="473" viewBox="0 0 617 473" fill="none" xmlns="http://www.w3.org/2000/svg">
<path fill-rule="evenodd" clip-rule="evenodd" d="M327.067 -25.7029C408.172 -18.6587 409.072 104.834 462.446 166.306C508.162 218.959 596.106 233.637 611.325 301.685C628.33 377.72 594.338 458.796 540.447 515.066C485.534 572.403 405.78 608.85 327.067 598.492C254.578 588.952 217.461 514.568 163.318 465.434C103.972 411.579 -0.642691 381.823 0.00297474 301.685C0.648709 221.539 109.29 197.255 165.936 140.554C222.638 83.7952 247.139 -32.6448 327.067 -25.7029Z" stroke="#0081EB" stroke-opacity="0.2" stroke-width="0.6"/>
<path fill-rule="evenodd" clip-rule="evenodd" d="M323.991 -14.7138C402.102 -7.92976 402.968 111.003 454.371 170.206C498.399 220.914 583.096 235.05 597.754 300.586C614.131 373.814 581.394 451.896 529.493 506.088C476.607 561.308 399.797 596.41 323.991 586.434C254.179 577.246 218.432 505.609 166.288 458.289C109.133 406.422 8.38104 377.765 9.00286 300.586C9.62476 223.4 114.255 200.012 168.809 145.404C223.418 90.7413 247.014 -21.3994 323.991 -14.7138Z" stroke="#0081EB" stroke-opacity="0.2" stroke-width="0.6"/>
<path fill-rule="evenodd" clip-rule="evenodd" d="M326.43 -4.72251C402.169 1.85563 403.009 117.178 452.853 174.584C495.544 223.753 577.67 237.46 591.882 301.007C607.763 372.012 576.019 447.724 525.694 500.271C474.413 553.815 399.935 587.851 326.43 578.178C258.737 569.269 224.075 499.807 173.514 453.923C118.094 403.63 20.3998 375.843 21.0028 301.007C21.6058 226.163 123.06 203.486 175.958 150.535C228.909 97.5316 251.789 -11.2052 326.43 -4.72251Z" stroke="#0081EB" stroke-opacity="0.2" stroke-width="0.6"/>
<path fill-rule="evenodd" clip-rule="evenodd" d="M325.602 3.26856C398.904 9.63504 399.717 121.247 447.957 176.806C489.275 224.393 568.758 237.659 582.513 299.161C597.882 367.881 567.16 441.156 518.454 492.013C468.824 543.834 396.742 576.775 325.602 567.413C260.087 558.791 226.54 491.563 177.606 447.156C123.969 398.482 29.4191 371.588 30.0027 299.161C30.5863 226.725 128.776 204.777 179.972 153.531C231.219 102.232 253.363 -3.00553 325.602 3.26856Z" stroke="#0081EB" stroke-opacity="0.2" stroke-width="0.6"/>
<path fill-rule="evenodd" clip-rule="evenodd" d="M325.651 14.9374C395.99 21.0465 396.77 128.146 443.06 181.459C482.707 227.122 558.977 239.852 572.176 298.867C586.924 364.809 557.444 435.122 510.707 483.923C463.083 533.649 393.915 565.258 325.651 556.274C262.785 548.001 230.595 483.491 183.639 440.88C132.17 394.173 41.4426 368.367 42.0026 298.867C42.5626 229.36 136.783 208.3 185.909 159.125C235.084 109.9 256.333 8.91695 325.651 14.9374Z" stroke="#0081EB" stroke-opacity="0.2" stroke-width="0.6"/>
<path fill-rule="evenodd" clip-rule="evenodd" d="M324.841 29.2452C391.755 35.0568 392.497 136.942 436.532 187.659C474.249 231.099 546.806 243.208 559.362 299.351C573.392 362.082 545.347 428.972 500.886 475.396C455.581 522.701 389.781 552.771 324.841 544.225C265.035 536.354 234.412 474.986 189.742 434.449C140.78 390.016 54.4698 365.466 55.0025 299.351C55.5352 233.228 145.168 213.193 191.902 166.412C238.683 119.584 258.897 23.5178 324.841 29.2452Z" stroke="#0081EB" stroke-opacity="0.2" stroke-width="0.6"/>
<path fill-rule="evenodd" clip-rule="evenodd" d="M320.312 45.0105C382.879 50.4446 383.573 145.711 424.748 193.133C460.015 233.751 527.858 245.075 539.598 297.57C552.717 356.226 526.494 418.771 484.921 462.179C442.559 506.411 381.033 534.528 320.312 526.537C264.391 519.178 235.757 461.795 193.989 423.892C148.208 382.345 67.5042 359.391 68.0023 297.57C68.5004 235.742 152.31 217.009 196.009 173.267C239.751 129.481 258.652 39.6552 320.312 45.0105Z" stroke="#0081EB" stroke-opacity="0.2" stroke-width="0.6"/>
<path fill-rule="evenodd" clip-rule="evenodd" d="M319.189 63.2119C377.015 68.2341 377.656 156.281 415.71 200.109C448.304 237.648 511.005 248.113 521.856 296.63C533.981 350.84 509.745 408.645 471.323 448.763C432.171 489.643 375.309 515.629 319.189 508.244C267.507 501.442 241.043 448.409 202.441 413.378C160.129 374.98 85.5418 353.765 86.0021 296.63C86.4625 239.488 163.921 222.174 204.307 181.748C244.734 141.281 262.203 58.2625 319.189 63.2119Z" stroke="#0081EB" stroke-opacity="0.2" stroke-width="0.6"/>
<path fill-rule="evenodd" clip-rule="evenodd" d="M321.159 72.2037C376.745 77.0314 377.362 161.668 413.942 203.799C445.274 239.885 505.547 249.945 515.978 296.583C527.633 348.694 504.336 404.26 467.401 442.825C429.766 482.122 375.105 507.101 321.159 500.002C271.478 493.464 246.039 442.484 208.932 408.81C168.258 371.899 96.5595 351.506 97.002 296.583C97.4446 241.654 171.903 225.01 210.726 186.149C249.587 147.249 266.379 67.4459 321.159 72.2037Z" stroke="#0081EB" stroke-opacity="0.2" stroke-width="0.6"/>
<path fill-rule="evenodd" clip-rule="evenodd" d="M318.535 83.194C371.487 87.793 372.074 168.419 406.921 208.553C436.768 242.928 494.185 252.511 504.121 296.939C515.224 346.58 493.031 399.513 457.847 436.25C421.995 473.685 369.925 497.48 318.535 490.717C271.209 484.489 246.976 435.926 211.627 403.847C172.881 368.686 104.58 349.259 105.002 296.939C105.424 244.613 176.353 228.759 213.336 191.739C250.356 154.683 266.352 78.6618 318.535 83.194Z" stroke="#0081EB" stroke-opacity="0.2" stroke-width="0.6"/>
<path fill-rule="evenodd" clip-rule="evenodd" d="M319.38 92.1839C369.566 96.5426 370.123 172.956 403.149 210.994C431.437 243.574 485.854 252.656 495.272 294.763C505.794 341.811 484.761 391.979 451.414 426.797C417.436 462.276 368.086 484.828 319.38 478.419C274.526 472.516 251.559 426.489 218.057 396.086C181.335 362.762 116.602 344.35 117.002 294.763C117.401 245.171 184.626 230.145 219.677 195.059C254.762 159.938 269.923 87.8884 319.38 92.1839Z" stroke="#0081EB" stroke-opacity="0.2" stroke-width="0.6"/>
<path fill-rule="evenodd" clip-rule="evenodd" d="M319.038 106.171C365.668 110.221 366.185 181.219 396.871 216.561C423.154 246.833 473.715 255.271 482.465 294.394C492.242 338.108 472.699 384.72 441.716 417.071C410.145 450.036 364.292 470.99 319.038 465.035C277.363 459.55 256.023 416.785 224.895 388.537C190.776 357.574 130.631 340.467 131.002 294.394C131.373 248.316 193.833 234.355 226.4 201.756C259 169.124 273.086 102.18 319.038 106.171Z" stroke="#0081EB" stroke-opacity="0.2" stroke-width="0.6"/>
<path fill-rule="evenodd" clip-rule="evenodd" d="M319.759 120.159C363.095 123.923 363.576 189.907 392.095 222.753C416.522 250.887 463.512 258.729 471.644 295.089C480.73 335.716 462.568 379.037 433.773 409.103C404.431 439.739 361.817 459.214 319.759 453.679C281.027 448.582 261.194 408.837 232.264 382.584C200.554 353.808 144.657 337.908 145.002 295.089C145.347 252.266 203.396 239.29 233.663 208.993C263.96 178.666 277.052 116.45 319.759 120.159Z" stroke="#0081EB" stroke-opacity="0.2" stroke-width="0.6"/>
<path fill-rule="evenodd" clip-rule="evenodd" d="M318.886 134.145C358.534 137.589 358.974 197.958 385.065 228.008C407.414 253.747 450.405 260.923 457.845 294.188C466.158 331.358 449.541 370.991 423.196 398.498C396.352 426.528 357.364 444.345 318.886 439.281C283.45 434.617 265.305 398.255 238.838 374.236C209.826 347.909 158.686 333.363 159.001 294.188C159.317 255.009 212.426 243.138 240.117 215.419C267.836 187.673 279.813 130.752 318.886 134.145Z" stroke="#0081EB" stroke-opacity="0.2" stroke-width="0.6"/>
<path fill-rule="evenodd" clip-rule="evenodd" d="M320.669 148.134C357.287 151.315 357.693 207.071 381.791 234.825C402.432 258.597 442.138 265.224 449.009 295.948C456.687 330.277 441.34 366.882 417.008 392.288C392.216 418.175 356.207 434.631 320.669 429.954C287.941 425.647 271.182 392.063 246.737 369.879C219.943 345.564 172.71 332.129 173.001 295.948C173.293 259.762 222.344 248.798 247.919 223.198C273.52 197.572 284.582 145 320.669 148.134Z" stroke="#0081EB" stroke-opacity="0.2" stroke-width="0.6"/>
<path fill-rule="evenodd" clip-rule="evenodd" d="M319.796 162.121C352.726 164.981 353.091 215.121 374.762 240.08C393.324 261.458 429.03 267.418 435.21 295.047C442.114 325.918 428.313 358.836 406.432 381.683C384.136 404.963 351.754 419.761 319.796 415.556C290.364 411.682 275.293 381.481 253.31 361.532C229.215 339.665 186.739 327.584 187.001 295.047C187.263 262.506 231.374 252.646 254.373 229.624C277.395 206.579 287.343 159.302 319.796 162.121Z" stroke="#0081EB" stroke-opacity="0.2" stroke-width="0.6"/>
<path fill-rule="evenodd" clip-rule="evenodd" d="M318.554 176.108C347.953 178.661 348.279 223.424 367.626 245.707C384.197 264.792 416.074 270.112 421.591 294.778C427.755 322.339 415.434 351.727 395.899 372.123C375.995 392.907 347.086 406.118 318.554 402.363C292.279 398.905 278.824 371.943 259.199 354.133C237.687 334.612 199.767 323.826 200.001 294.778C200.235 265.727 239.615 256.925 260.148 236.372C280.701 215.798 289.582 173.591 318.554 176.108Z" stroke="#0081EB" stroke-opacity="0.2" stroke-width="0.6"/>
<path fill-rule="evenodd" clip-rule="evenodd" d="M317.643 187.097C343.592 189.403 343.88 229.828 360.956 249.951C375.583 267.186 403.72 271.991 408.589 294.267C414.03 319.156 403.154 345.696 385.912 364.116C368.343 382.885 342.826 394.816 317.643 391.425C294.451 388.302 282.575 363.953 265.252 347.869C246.265 330.24 212.794 320.499 213.001 294.267C213.208 268.031 247.967 260.082 266.09 241.521C284.232 222.941 292.07 184.825 317.643 187.097Z" stroke="#0081EB" stroke-opacity="0.2" stroke-width="0.6"/>
<path fill-rule="evenodd" clip-rule="evenodd" d="M313.8 198.086C338.3 200.134 338.572 236.023 354.695 253.888C368.505 269.19 395.071 273.456 399.668 293.232C404.805 315.329 394.537 338.891 378.257 355.244C361.669 371.908 337.577 382.5 313.8 379.49C291.903 376.717 280.69 355.1 264.335 340.821C246.408 325.169 214.806 316.521 215.001 293.232C215.196 269.94 248.014 262.882 265.126 246.404C282.254 229.909 289.655 196.069 313.8 198.086Z" stroke="#0081EB" stroke-opacity="0.2" stroke-width="0.6"/>
<path fill-rule="evenodd" clip-rule="evenodd" d="M311.363 207.078C334.019 208.923 334.271 241.262 349.18 257.361C361.951 271.149 386.517 274.993 390.768 292.813C395.519 312.725 386.023 333.957 370.969 348.693C355.63 363.708 333.351 373.253 311.363 370.54C291.114 368.042 280.746 348.563 265.621 335.695C249.044 321.592 219.82 313.799 220.001 292.813C220.181 271.825 250.529 265.466 266.353 250.617C282.192 235.753 289.036 205.26 311.363 207.078Z" stroke="#0081EB" stroke-opacity="0.2" stroke-width="0.6"/>
<path fill-rule="evenodd" clip-rule="evenodd" d="M312.209 215.068C332.098 216.688 332.319 245.079 345.408 259.212C356.619 271.317 378.186 274.691 381.919 290.336C386.089 307.817 377.753 326.456 364.537 339.393C351.07 352.575 331.512 360.955 312.209 358.573C294.432 356.38 285.329 339.279 272.051 327.983C257.498 315.601 231.842 308.76 232.001 290.336C232.159 271.91 258.802 266.327 272.693 253.291C286.599 240.242 292.607 213.472 312.209 215.068Z" stroke="#0081EB" stroke-opacity="0.2" stroke-width="0.6"/>
<path fill-rule="evenodd" clip-rule="evenodd" d="M309.929 229.057C326.526 230.408 326.71 254.099 337.632 265.892C346.987 275.993 364.983 278.809 368.098 291.863C371.578 306.45 364.622 322.003 353.594 332.798C342.357 343.798 326.036 350.79 309.929 348.803C295.095 346.973 287.5 332.703 276.42 323.277C264.276 312.945 242.868 307.237 243.001 291.863C243.133 276.488 265.364 271.829 276.956 260.952C288.559 250.063 293.573 227.725 309.929 229.057Z" stroke="#0081EB" stroke-opacity="0.2" stroke-width="0.6"/>
<path fill-rule="evenodd" clip-rule="evenodd" d="M311.368 243.049C325.594 244.207 325.751 264.514 335.113 274.622C343.132 283.28 358.557 285.693 361.227 296.883C364.209 309.386 358.247 322.717 348.795 331.97C339.163 341.398 325.174 347.391 311.368 345.688C298.653 344.119 292.143 331.888 282.646 323.809C272.237 314.953 253.887 310.06 254.001 296.883C254.114 283.704 273.17 279.711 283.105 270.387C293.051 261.054 297.348 241.907 311.368 243.049Z" stroke="#0081EB" stroke-opacity="0.2" stroke-width="0.6"/>
<path fill-rule="evenodd" clip-rule="evenodd" d="M310.682 257.039C322.01 257.961 322.135 274.131 329.59 282.18C335.975 289.075 348.258 290.996 350.384 299.907C352.759 309.863 348.012 320.478 340.485 327.846C332.815 335.354 321.676 340.126 310.682 338.77C300.557 337.521 295.373 327.781 287.811 321.348C279.522 314.296 264.91 310.4 265 299.907C265.091 289.412 280.265 286.233 288.176 278.808C296.096 271.376 299.518 256.13 310.682 257.039Z" stroke="#0081EB" stroke-opacity="0.2" stroke-width="0.6"/>
<path fill-rule="evenodd" clip-rule="evenodd" d="M307.871 271.027C315.774 271.671 315.862 282.952 321.063 288.568C325.518 293.378 334.087 294.718 335.57 300.935C337.227 307.881 333.915 315.287 328.664 320.428C323.313 325.666 315.541 328.995 307.871 328.049C300.807 327.177 297.19 320.382 291.914 315.894C286.132 310.974 275.937 308.256 276 300.935C276.063 293.613 286.65 291.395 292.17 286.215C297.695 281.03 300.082 270.393 307.871 271.027Z" stroke="#0081EB" stroke-opacity="0.2" stroke-width="0.6"/>
<path fill-rule="evenodd" clip-rule="evenodd" d="M307.185 282.017C312.19 282.425 312.246 289.57 315.54 293.126C318.361 296.172 323.789 297.022 324.728 300.959C325.777 305.358 323.68 310.049 320.354 313.304C316.965 316.622 312.043 318.73 307.185 318.131C302.711 317.579 300.421 313.275 297.079 310.433C293.417 307.317 286.96 305.595 287 300.959C287.04 296.322 293.745 294.917 297.241 291.636C300.74 288.352 302.252 281.616 307.185 282.017Z" stroke="#0081EB" stroke-opacity="0.2" stroke-width="0.6"/>
</svg>
