<svg width="20" height="20" viewBox="0 0 20 20" fill="none" xmlns="http://www.w3.org/2000/svg">
<g clip-path="url(#clip0_1215_1833)">
<path d="M15.8335 7.49968C16.4927 7.49968 17.1372 7.30418 17.6854 6.93791C18.2335 6.57164 18.6608 6.05104 18.9131 5.44195C19.1654 4.83287 19.2314 4.16265 19.1028 3.51604C18.9741 2.86944 18.6567 2.2755 18.1905 1.80932C17.7243 1.34315 17.1304 1.02568 16.4838 0.897058C15.8372 0.768441 15.167 0.834452 14.5579 1.08674C13.9488 1.33904 13.4282 1.76628 13.0619 2.31444C12.6956 2.86261 12.5001 3.50707 12.5001 4.16634C12.5046 4.48071 12.5543 4.7928 12.6476 5.09301L6.71764 7.87968C6.28098 7.34985 5.69136 6.96779 5.02937 6.78571C4.36738 6.60362 3.66532 6.63039 3.01911 6.86237C2.37291 7.09434 1.81411 7.52019 1.41906 8.08173C1.02402 8.64327 0.812012 9.3131 0.812012 9.99968C0.812012 10.6863 1.02402 11.3561 1.41906 11.9176C1.81411 12.4792 2.37291 12.905 3.01911 13.137C3.66532 13.369 4.36738 13.3957 5.02937 13.2136C5.69136 13.0316 6.28098 12.6495 6.71764 12.1197L12.6476 14.9063C12.5543 15.2066 12.5046 15.5186 12.5001 15.833C12.4982 16.6055 12.764 17.3548 13.2523 17.9534C13.7405 18.552 14.4211 18.963 15.1782 19.1164C15.9353 19.2698 16.7222 19.1561 17.4049 18.7948C18.0877 18.4334 18.6242 17.8467 18.9231 17.1344C19.222 16.4221 19.265 15.6283 19.0446 14.8879C18.8242 14.1475 18.3541 13.5063 17.7143 13.0735C17.0745 12.6406 16.3045 12.4428 15.5352 12.5137C14.766 12.5845 14.0451 12.9197 13.4951 13.4622L7.43764 10.6163C7.52098 10.2097 7.52098 9.79045 7.43764 9.38384L13.4951 6.53718C14.1174 7.15352 14.9577 7.4994 15.8335 7.49968ZM15.8335 2.49968C16.1631 2.49968 16.4853 2.59742 16.7594 2.78056C17.0335 2.9637 17.2471 3.22399 17.3733 3.52854C17.4994 3.83308 17.5324 4.16819 17.4681 4.49149C17.4038 4.81479 17.2451 5.11177 17.012 5.34485C16.7789 5.57794 16.4819 5.73668 16.1586 5.80098C15.8353 5.86529 15.5002 5.83229 15.1957 5.70614C14.8911 5.58 14.6308 5.36637 14.4477 5.09229C14.2646 4.81821 14.1668 4.49598 14.1668 4.16634C14.1668 3.72432 14.3424 3.30039 14.655 2.98783C14.9675 2.67527 15.3914 2.49968 15.8335 2.49968ZM4.16681 11.6663C3.83717 11.6663 3.51494 11.5686 3.24086 11.3855C2.96678 11.2023 2.75316 10.942 2.62701 10.6375C2.50086 10.3329 2.46786 9.99783 2.53217 9.67453C2.59648 9.35122 2.75521 9.05425 2.9883 8.82117C3.22138 8.58808 3.51836 8.42934 3.84166 8.36503C4.16496 8.30072 4.50007 8.33373 4.80461 8.45988C5.10916 8.58602 5.36946 8.79964 5.55259 9.07373C5.73573 9.34781 5.83348 9.67004 5.83348 9.99968C5.83348 10.4417 5.65788 10.8656 5.34532 11.1782C5.03276 11.4907 4.60884 11.6663 4.16681 11.6663ZM15.8335 14.1663C16.1631 14.1663 16.4853 14.2641 16.7594 14.4472C17.0335 14.6304 17.2471 14.8907 17.3733 15.1952C17.4994 15.4997 17.5324 15.8349 17.4681 16.1582C17.4038 16.4815 17.2451 16.7784 17.012 17.0115C16.7789 17.2446 16.4819 17.4033 16.1586 17.4677C15.8353 17.532 15.5002 17.499 15.1957 17.3728C14.8911 17.2467 14.6308 17.033 14.4477 16.759C14.2646 16.4849 14.1668 16.1626 14.1668 15.833C14.1668 15.391 14.3424 14.9671 14.655 14.6545C14.9675 14.3419 15.3914 14.1663 15.8335 14.1663Z" fill="black"/>
</g>
<defs>
<clipPath id="clip0_1215_1833">
<rect width="20" height="20" fill="white"/>
</clipPath>
</defs>
</svg>
