<svg width="32" height="32" viewBox="0 0 32 32" fill="none" xmlns="http://www.w3.org/2000/svg">
<path d="M8 8C6.89543 8 6 8.89543 6 10V17C6 18.1046 6.89543 19 8 19H19C20.1046 19 21 18.1046 21 17V10C21 8.89543 20.1046 8 19 8H8ZM10.5 21.5C9.56809 21.5 8.78504 20.8626 8.56302 20H19.5C20.8807 20 22 18.8807 22 17.5V10.563C22.8626 10.785 23.5 11.5681 23.5 12.5V17.5C23.5 19.7091 21.7091 21.5 19.5 21.5H10.5ZM13 24C12.0681 24 11.285 23.3626 11.063 22.5H20.25C22.5972 22.5 24.5 20.5972 24.5 18.25V13.063C25.3626 13.285 26 14.0681 26 15V18.25C26 21.4256 23.4256 24 20.25 24H13Z" fill="#F2F8FF"/>
</svg>
