<svg width="32" height="32" viewBox="0 0 32 32" fill="none" xmlns="http://www.w3.org/2000/svg">
<path d="M11 10.2527V11.0001H8.25C7.00736 11.0001 6 12.0074 6 13.2501V15.5001H10.5V14.7501C10.5 14.3358 10.8358 14.0001 11.25 14.0001C11.6642 14.0001 12 14.3358 12 14.7501V15.5001H20V14.7501C20 14.3358 20.3358 14.0001 20.75 14.0001C21.1642 14.0001 21.5 14.3358 21.5 14.7501V15.5001H26V13.2501C26 12.0074 24.9926 11.0001 23.75 11.0001H21V10.2527C21 9.01005 19.9926 8.00269 18.75 8.00269H13.25C12.0074 8.00269 11 9.01004 11 10.2527ZM13.25 9.50269H18.75C19.1642 9.50269 19.5 9.83847 19.5 10.2527V11.0001H12.5V10.2527C12.5 9.83847 12.8358 9.50269 13.25 9.50269ZM26 17.0001H21.5V18.2501C21.5 18.6643 21.1642 19.0001 20.75 19.0001C20.3358 19.0001 20 18.6643 20 18.2501V17.0001H12V18.2501C12 18.6643 11.6642 19.0001 11.25 19.0001C10.8358 19.0001 10.5 18.6643 10.5 18.2501V17.0001H6V21.7469C6 22.9895 7.00736 23.9969 8.25 23.9969H23.75C24.9926 23.9969 26 22.9895 26 21.7469V17.0001Z" fill="#F2F8FF"/>
</svg>
