<svg width="25" height="24" viewBox="0 0 25 24" fill="none" xmlns="http://www.w3.org/2000/svg">
<circle cx="12.5" cy="12" r="11.8" fill="#F2F8FF" stroke="#F2F8FF" stroke-width="0.4"/>
<path d="M19.4735 8.00008C18.9602 8.23341 18.4069 8.38675 17.8335 8.46008C18.4202 8.10675 18.8735 7.54675 19.0869 6.87341C18.5335 7.20675 17.9202 7.44008 17.2735 7.57341C16.7469 7.00008 16.0069 6.66675 15.1669 6.66675C13.6002 6.66675 12.3202 7.94675 12.3202 9.52675C12.3202 9.75341 12.3469 9.97341 12.3935 10.1801C10.0202 10.0601 7.90686 8.92008 6.50019 7.19341C6.25352 7.61341 6.11352 8.10675 6.11352 8.62675C6.11352 9.62008 6.61352 10.5001 7.38686 11.0001C6.91352 11.0001 6.47352 10.8667 6.08686 10.6667V10.6867C6.08686 12.0734 7.07352 13.2334 8.38019 13.4934C7.96067 13.6082 7.52025 13.6242 7.09352 13.5401C7.27459 14.1084 7.62921 14.6057 8.10753 14.962C8.58585 15.3184 9.16382 15.5159 9.76019 15.5267C8.74928 16.327 7.49619 16.7596 6.20686 16.7534C5.98019 16.7534 5.75352 16.7401 5.52686 16.7134C6.79352 17.5267 8.30019 18.0001 9.91352 18.0001C15.1669 18.0001 18.0535 13.6401 18.0535 9.86008C18.0535 9.73341 18.0535 9.61341 18.0469 9.48675C18.6069 9.08675 19.0869 8.58008 19.4735 8.00008Z" fill="#101626"/>
</svg>
