<svg width="17" height="17" viewBox="0 0 17 17" fill="none" xmlns="http://www.w3.org/2000/svg" class="animate-spin">
<circle cx="8.5" cy="8.5" r="7.5" stroke="#5444F2" stroke-opacity="0.2" strokeWidth="2"/>
<mask id="path-2-inside-1_1_3" fill="white">
<path d="M8.75937 16.996C7.20657 17.0434 5.67047 16.6644 4.31798 15.9C2.96549 15.1357 1.84834 14.0153 1.08791 12.6606L2.81672 11.6902C3.39978 12.7289 4.25637 13.588 5.2934 14.174C6.33044 14.7601 7.50825 15.0508 8.69888 15.0144L8.75937 16.996Z"/>
</mask>
<path d="M8.75937 16.996C7.20657 17.0434 5.67047 16.6644 4.31798 15.9C2.96549 15.1357 1.84834 14.0153 1.08791 12.6606L2.81672 11.6902C3.39978 12.7289 4.25637 13.588 5.2934 14.174C6.33044 14.7601 7.50825 15.0508 8.69888 15.0144L8.75937 16.996Z" stroke="white" strokeWidth="4" mask="url(#path-2-inside-1_1_3)"/>
</svg>
