<svg width="25" height="25" viewBox="0 0 25 25" fill="none" xmlns="http://www.w3.org/2000/svg">
<g id="interface/eye">
<path id="Vector" d="M2.76535 12.93C4.47635 17.584 8.37836 20.584 12.7034 20.584C17.0284 20.584 20.9304 17.584 22.6414 12.93C22.7243 12.7068 22.7243 12.4612 22.6414 12.238C20.9304 7.58398 17.0284 4.58398 12.7034 4.58398C8.37836 4.58398 4.47635 7.58398 2.76535 12.238C2.68238 12.4612 2.68238 12.7068 2.76535 12.93ZM12.7034 6.58398C16.0764 6.58398 19.1544 8.92698 20.6324 12.584C19.1544 16.241 16.0764 18.584 12.7034 18.584C9.33035 18.584 6.25236 16.241 4.77435 12.584C6.25236 8.92698 9.33035 6.58398 12.7034 6.58398ZM12.7034 16.584C13.4945 16.584 14.2678 16.3494 14.9256 15.9099C15.5834 15.4703 16.0961 14.8456 16.3989 14.1147C16.7016 13.3838 16.7808 12.5795 16.6265 11.8036C16.4722 11.0277 16.0912 10.315 15.5318 9.75556C14.9724 9.19615 14.2596 8.81518 13.4837 8.66084C12.7078 8.5065 11.9035 8.58572 11.1726 8.88847C10.4417 9.19122 9.817 9.70391 9.37748 10.3617C8.93795 11.0195 8.70335 11.7929 8.70335 12.584C8.70335 13.6449 9.12478 14.6623 9.87493 15.4124C10.6251 16.1626 11.6425 16.584 12.7034 16.584ZM12.7034 10.584C13.0989 10.584 13.4856 10.7013 13.8145 10.921C14.1434 11.1408 14.3997 11.4532 14.5511 11.8186C14.7025 12.1841 14.7421 12.5862 14.6649 12.9742C14.5878 13.3621 14.3973 13.7185 14.1176 13.9982C13.8379 14.2779 13.4815 14.4684 13.0935 14.5456C12.7056 14.6227 12.3034 14.5831 11.938 14.4317C11.5725 14.2804 11.2602 14.024 11.0404 13.6951C10.8207 13.3662 10.7034 12.9795 10.7034 12.584C10.7034 12.0536 10.9141 11.5448 11.2891 11.1698C11.6642 10.7947 12.1729 10.584 12.7034 10.584Z" fill="black"/>
</g>
</svg>
