<svg width="25" height="25" viewBox="0 0 25 25" fill="#000000" xmlns="http://www.w3.org/2000/svg">
<g id="ph:heart">
<path id="Vector" d="M17.4133 4.58398C15.6921 4.58398 14.1851 5.32416 13.2457 6.57529C12.3063 5.32416 10.7993 4.58398 9.07804 4.58398C7.70791 4.58553 6.39433 5.1305 5.4255 6.09933C4.45667 7.06816 3.9117 8.38174 3.91016 9.75187C3.91016 15.5866 12.5614 20.3094 12.9298 20.5044C13.0269 20.5566 13.1354 20.584 13.2457 20.584C13.356 20.584 13.4645 20.5566 13.5616 20.5044C13.93 20.3094 22.5812 15.5866 22.5812 9.75187C22.5797 8.38174 22.0347 7.06816 21.0659 6.09933C20.097 5.1305 18.7835 4.58553 17.4133 4.58398ZM13.2457 19.1541C11.7237 18.2672 5.2438 14.2271 5.2438 9.75187C5.24513 8.73537 5.64952 7.76089 6.36829 7.04212C7.08706 6.32334 8.06154 5.91896 9.07804 5.91763C10.6993 5.91763 12.0604 6.78117 12.6289 8.16816C12.6791 8.29047 12.7646 8.39507 12.8744 8.46869C12.9842 8.54231 13.1135 8.58162 13.2457 8.58162C13.3779 8.58162 13.5071 8.54231 13.617 8.46869C13.7268 8.39507 13.8123 8.29047 13.8625 8.16816C14.431 6.77867 15.7921 5.91763 17.4133 5.91763C18.4298 5.91896 19.4043 6.32334 20.1231 7.04212C20.8419 7.76089 21.2463 8.73537 21.2476 9.75187C21.2476 14.2204 14.766 18.2664 13.2457 19.1541Z" fill="red" stroke="red"/>
</g>
</svg>
